<svg width="149" height="22" viewBox="0 0 149 22" fill="none" xmlns="http://www.w3.org/2000/svg">
<path d="M31.9526 5.06918L21.628 0.797515C19.0704 -0.261235 16.133 -0.265818 13.5731 0.783765L3.12577 5.06689C2.38256 5.37168 1.90361 6.07522 1.90361 6.85897C1.90361 7.64272 2.38492 8.34627 3.12813 8.64877L5.15247 9.47606C5.22561 9.50356 5.27988 9.5746 5.27988 9.65939C5.27988 9.70981 5.261 9.75564 5.22561 9.79002L5.23033 9.7946C4.63577 10.3652 4.1403 11.0344 3.79111 11.7746C3.69674 11.974 3.61416 12.1779 3.54102 12.3865C2.92994 12.6775 2.50525 13.2825 2.50525 13.9883C2.50525 14.5819 2.80489 15.1021 3.26261 15.4275C3.17296 16.7269 2.1773 17.7856 0.879643 18.0079C0.605955 18.0538 0.43844 18.3311 0.539893 18.5831C0.959862 19.6121 1.99327 20.3386 3.20363 20.334C4.70419 20.3271 5.97353 19.14 6.03724 17.6848C6.07263 16.8552 5.73052 16.1059 5.16899 15.5788C5.76827 15.2831 6.18352 14.6873 6.18352 13.9883C6.18352 13.6331 6.07263 13.3031 5.89096 13.0258C5.92635 12.9388 5.95938 12.8517 5.99949 12.7669C6.36991 11.9877 6.97863 11.3231 7.72655 10.8694C7.84452 10.8029 7.98136 10.764 8.13 10.764C8.25033 10.764 8.36594 10.7915 8.47211 10.8373L13.5778 12.925C14.8495 13.4452 16.2156 13.7042 17.5793 13.7042C18.9548 13.7042 20.3303 13.4406 21.6115 12.9113L31.9479 8.64877C32.6887 8.34397 33.1653 7.64272 33.1677 6.86127C33.1701 6.07752 32.6911 5.37627 31.9526 5.06918ZM20.663 10.7342C18.7142 11.5386 16.4751 11.5408 14.5239 10.7433L11.7281 9.59981C11.6714 9.5746 11.6337 9.52189 11.6337 9.45772C11.6337 9.39356 11.6738 9.33856 11.7304 9.31564V9.31106L17.1711 7.0446C17.6406 6.84981 17.6406 6.20356 17.1688 6.00876C17.1688 6.00876 16.3052 5.65356 16.0174 5.53439C15.5738 5.35106 15.0736 5.35106 14.6301 5.53439C13.3088 6.0821 9.91369 7.49606 8.51222 8.07814C8.43436 8.10564 8.35178 8.12397 8.26213 8.12397C8.16775 8.12397 8.0781 8.10564 7.99788 8.07356L5.47807 7.04231C5.40728 7.00793 5.35774 6.93689 5.35774 6.85439C5.35774 6.77189 5.412 6.69627 5.48514 6.66418L14.5192 2.96085C16.4775 2.15876 18.7189 2.16106 20.6748 2.97002L29.6216 6.67335C29.6947 6.70314 29.749 6.77418 29.749 6.85668C29.749 6.93689 29.6971 7.00564 29.6239 7.03772L20.663 10.7342Z" fill="#1E6DEB"/>
<path d="M44.9905 4.53529C44.9197 4.38174 44.764 4.2832 44.5894 4.2832H42.1428C41.9705 4.2832 41.8124 4.38174 41.7417 4.53529L36.1381 16.7522C36.0626 16.9149 36.1853 17.0959 36.3694 17.0959H38.8821C39.0189 17.0959 39.144 17.0157 39.1959 16.892L40.2789 14.3505H46.4038L47.4867 16.892C47.5386 17.0157 47.6637 17.0959 47.8005 17.0959H50.3864C50.5704 17.0959 50.6931 16.9126 50.6176 16.7499L44.9905 4.53529ZM41.2556 12.1001L43.3484 7.19362L45.4412 12.1001H41.2556Z" fill="#1E6DEB"/>
<path d="M60.5058 7.73455C59.7342 7.31288 58.8754 7.10205 57.934 7.10205C56.5397 7.10205 55.4779 7.5283 54.7489 8.38309V7.54434C54.7489 7.38163 54.612 7.24872 54.4445 7.24872H52.2456C52.0781 7.24872 51.9412 7.38163 51.9412 7.54434V20.3525C51.9412 20.5152 52.0781 20.6481 52.2456 20.6481H54.5767C54.7442 20.6481 54.881 20.5152 54.881 20.3525V16.2091C54.881 16.1518 54.9494 16.1266 54.9919 16.1679C55.7233 16.8852 56.7025 17.245 57.934 17.245C58.8754 17.245 59.7342 17.0341 60.5058 16.6125C61.2796 16.1908 61.8836 15.5995 62.3248 14.8364C62.7637 14.0733 62.9855 13.1864 62.9855 12.1735C62.9855 11.1606 62.766 10.2737 62.3248 9.51059C61.886 8.74747 61.2796 8.15393 60.5058 7.73455ZM59.2812 14.1581C58.7976 14.6531 58.1794 14.9006 57.4244 14.9006C56.6718 14.9006 56.0513 14.6531 55.5676 14.1581C55.0839 13.6631 54.8409 13.0031 54.8409 12.1712C54.8409 11.3416 55.0839 10.6793 55.5676 10.1843C56.0513 9.68934 56.6694 9.44413 57.4244 9.44413C58.1771 9.44413 58.7976 9.69163 59.2812 10.1843C59.7649 10.6793 60.0056 11.3416 60.0056 12.1712C60.0079 13.0031 59.7649 13.6654 59.2812 14.1581Z" fill="#1E6DEB"/>
<path d="M73.1449 7.73455C72.3734 7.31288 71.5146 7.10205 70.5732 7.10205C69.1788 7.10205 68.1171 7.5283 67.3881 8.38309V7.54434C67.3881 7.38163 67.2512 7.24872 67.0837 7.24872H64.8848C64.7173 7.24872 64.5804 7.38163 64.5804 7.54434V20.3525C64.5804 20.5152 64.7173 20.6481 64.8848 20.6481H67.2158C67.3833 20.6481 67.5202 20.5152 67.5202 20.3525V16.2091C67.5202 16.1518 67.5886 16.1266 67.6311 16.1679C68.3625 16.8852 69.3416 17.245 70.5732 17.245C71.5146 17.245 72.3734 17.0341 73.1449 16.6125C73.9188 16.1908 74.5228 15.5995 74.964 14.8364C75.4029 14.0733 75.6246 13.1864 75.6246 12.1735C75.6246 11.1606 75.4052 10.2737 74.964 9.51059C74.5228 8.74747 73.9165 8.15393 73.1449 7.73455ZM71.9181 14.1581C71.4344 14.6531 70.8162 14.9006 70.0612 14.9006C69.3086 14.9006 68.6881 14.6531 68.2044 14.1581C67.7207 13.6631 67.4777 13.0031 67.4777 12.1712C67.4777 11.3416 67.7207 10.6793 68.2044 10.1843C68.6881 9.68934 69.3062 9.44413 70.0612 9.44413C70.8139 9.44413 71.4344 9.69163 71.9181 10.1843C72.4017 10.6793 72.6424 11.3416 72.6424 12.1712C72.6447 13.0031 72.4017 13.6654 71.9181 14.1581Z" fill="#1E6DEB"/>
<path d="M80.1334 3.51318H77.1936V17.0959H80.1334V3.51318Z" fill="#1E6DEB"/>
<path d="M114.946 7.75288C114.104 7.31976 113.148 7.10205 112.082 7.10205C111.013 7.10205 110.055 7.31976 109.208 7.75288C108.361 8.18601 107.698 8.78643 107.219 9.55643C106.742 10.3241 106.502 11.1973 106.502 12.1735C106.502 13.1498 106.74 14.0229 107.219 14.7906C107.696 15.5583 108.359 16.161 109.208 16.5941C110.057 17.0273 111.013 17.245 112.082 17.245C113.151 17.245 114.104 17.0273 114.946 16.5941C115.788 16.161 116.447 15.5606 116.926 14.7906C117.402 14.0229 117.64 13.1498 117.64 12.1735C117.64 11.1973 117.402 10.3241 116.926 9.55643C116.449 8.78643 115.788 8.18601 114.946 7.75288ZM113.939 14.1581C113.455 14.6531 112.837 14.9006 112.082 14.9006C111.329 14.9006 110.706 14.6531 110.215 14.1581C109.725 13.6631 109.479 13.0031 109.479 12.1712C109.479 11.3416 109.725 10.6793 110.215 10.1843C110.706 9.68934 111.327 9.44413 112.082 9.44413C112.837 9.44413 113.455 9.69163 113.939 10.1843C114.422 10.6793 114.663 11.3416 114.663 12.1712C114.665 13.0031 114.422 13.6654 113.939 14.1581Z" fill="#1E6DEB"/>
<path d="M123.522 7.10205C122.706 7.10205 121.911 7.20518 121.139 7.41372C120.448 7.59934 119.844 7.85372 119.327 8.17684C119.224 8.24101 119.193 8.37393 119.247 8.47934L120.078 10.0514C120.144 10.1775 120.304 10.2118 120.424 10.1316C120.743 9.92309 121.111 9.75351 121.531 9.62059C122.052 9.45559 122.583 9.37309 123.124 9.37309C123.902 9.37309 124.487 9.54038 124.877 9.87726C125.214 10.1683 125.405 10.5671 125.45 11.0712C125.462 11.2018 125.346 11.3141 125.212 11.3141H123.124C121.642 11.3141 120.545 11.5777 119.835 12.1002C119.124 12.625 118.771 13.3445 118.771 14.2612C118.771 14.8341 118.922 15.3475 119.224 15.7989C119.526 16.2504 119.962 16.6033 120.533 16.86C121.104 17.1166 121.779 17.245 122.56 17.245C124.067 17.245 125.098 16.7866 125.65 15.8723V16.8668C125.65 16.9952 125.757 17.0983 125.889 17.0983H128.166C128.298 17.0983 128.404 16.9952 128.404 16.8668V11.4768C128.404 10.0125 127.984 8.91705 127.142 8.19059C126.297 7.46643 125.091 7.10205 123.522 7.10205ZM125.462 13.5577C125.462 14.142 125.148 14.6806 124.631 14.9831C124.242 15.21 123.796 15.3223 123.293 15.3223C122.779 15.3223 122.373 15.2146 122.078 15.0014C121.783 14.7883 121.635 14.4973 121.635 14.1329C121.635 13.3629 122.239 12.9802 123.444 12.9802H125.221C125.353 12.9802 125.459 13.0833 125.459 13.2116V13.5577H125.462Z" fill="#1E6DEB"/>
<path d="M132.738 8.54794V7.48003C132.738 7.35169 132.632 7.24857 132.5 7.24857H130.166C130.034 7.24857 129.928 7.35169 129.928 7.48003V16.8667C129.928 16.995 130.034 17.0982 130.166 17.0982H132.63C132.762 17.0982 132.868 16.995 132.868 16.8667V12.4461C132.868 11.5317 133.106 10.8442 133.585 10.3859C134.062 9.92753 134.722 9.69836 135.565 9.69836C135.678 9.69836 135.897 9.70982 136.225 9.73503V7.09961C135.447 7.09961 134.758 7.22107 134.161 7.46628C133.564 7.71148 133.09 8.07128 132.738 8.54794Z" fill="#1E6DEB"/>
<path d="M147.973 3.51318H145.509C145.377 3.51318 145.271 3.61631 145.271 3.74464V8.29131C144.542 7.49839 143.53 7.10193 142.237 7.10193C141.281 7.10193 140.418 7.31047 139.646 7.72527C138.872 8.14006 138.266 8.73131 137.827 9.50131C137.386 10.269 137.167 11.1605 137.167 12.1734C137.167 13.1863 137.386 14.0778 137.827 14.8455C138.266 15.6155 138.872 16.2067 139.646 16.6215C140.418 17.0363 141.284 17.2448 142.237 17.2448C143.619 17.2448 144.674 16.8186 145.403 15.9638V16.8667C145.403 16.9951 145.509 17.0982 145.641 17.0982H147.973C148.105 17.0982 148.211 16.9951 148.211 16.8667V3.74464C148.211 3.6186 148.102 3.51318 147.973 3.51318ZM144.592 14.158C144.101 14.653 143.485 14.9005 142.744 14.9005C141.992 14.9005 141.369 14.653 140.878 14.158C140.387 13.663 140.142 13.003 140.142 12.1711C140.142 11.3415 140.387 10.6792 140.878 10.1842C141.369 9.68922 141.989 9.44402 142.744 9.44402C143.485 9.44402 144.101 9.69151 144.592 10.1842C145.082 10.6792 145.328 11.3415 145.328 12.1711C145.328 13.003 145.082 13.6653 144.592 14.158Z" fill="#1E6DEB"/>
<path d="M91.9586 6.86801H89.7408C89.5945 6.86801 89.4647 6.96197 89.4223 7.09718L87.4357 13.5116L84.6752 7.06739C84.6233 6.94593 84.5006 6.86572 84.3638 6.86572H81.969C81.7873 6.86572 81.6646 7.04906 81.7378 7.20947L86.0885 16.7061L86.0484 16.8024C85.8785 17.1713 85.6685 17.5609 85.317 17.7947C84.805 18.1361 84.1255 18.0743 83.5734 17.868C83.3492 17.7855 83.144 17.6778 82.9576 17.5472C82.842 17.467 82.6792 17.5105 82.6155 17.632L81.7 19.3622C81.6481 19.4607 81.6717 19.5822 81.7614 19.6509C82.0823 19.8916 82.4786 20.0841 82.9458 20.2284C83.4908 20.3957 84.0405 20.4805 84.5997 20.4805C85.6213 20.4805 86.4943 20.2353 87.2186 19.7449C87.858 19.3118 88.4077 18.5991 88.8655 17.6113C88.9881 17.3478 89.0849 17.0705 89.1722 16.7955L92.1992 7.17968C92.2488 7.02614 92.1285 6.86801 91.9586 6.86801Z" fill="#1E6DEB"/>
<path d="M103.059 10.5164C102.963 10.4797 102.953 10.3606 103.041 10.3078C103.486 10.042 103.84 9.69826 104.105 9.27889C104.414 8.79076 104.567 8.2316 104.567 7.60826C104.567 6.98493 104.388 6.35701 103.998 5.85972C103.18 4.80784 101.705 4.28076 99.5723 4.28076H93.9428C93.7847 4.28076 93.6573 4.40451 93.6573 4.55805V16.8162C93.6573 16.9697 93.7847 17.0935 93.9428 17.0935H99.9474C101.67 17.0935 102.979 16.791 103.876 16.1883C104.775 15.5833 105.223 14.7216 105.223 13.5987C105.223 12.8058 105.008 12.1366 104.581 11.5935C104.204 11.1145 103.696 10.7547 103.059 10.5164ZM96.6797 6.72826C96.6797 6.59535 96.7906 6.48993 96.9251 6.48993H99.7021C100.582 6.48993 101.295 7.18201 101.295 8.0368C101.295 8.89159 100.582 9.58368 99.7021 9.58368H96.9251C96.7882 9.58368 96.6797 9.47597 96.6797 9.34534V6.72826ZM100.551 14.8522H97.0171C96.8307 14.8522 96.682 14.7056 96.682 14.5268V12.0151C96.682 11.8341 96.8331 11.6897 97.0171 11.6897H100.551C101.45 11.6897 102.179 12.3978 102.179 13.271C102.179 14.1441 101.45 14.8522 100.551 14.8522Z" fill="#1E6DEB"/>
<path d="M26.073 15.558L25.1836 15.1753C24.7683 14.9965 24.2894 15.1959 24.1242 15.6061C23.8151 16.3761 23.2748 17.0888 22.5316 17.6915C21.2245 18.7503 19.4715 19.3323 17.5935 19.3323C15.7154 19.3323 13.9624 18.7503 12.6553 17.6915C11.9003 17.0819 11.3576 16.3555 11.0485 15.5717C10.8858 15.1546 10.4021 14.9507 9.98211 15.1317L9.09735 15.5121C8.71041 15.6794 8.52874 16.1103 8.67738 16.4953C9.14217 17.7007 9.95616 18.7984 11.0745 19.7036C12.8299 21.1244 15.1444 21.9059 17.5935 21.9059C20.0448 21.9059 22.3594 21.1244 24.1124 19.7036C25.2166 18.8098 26.0211 17.7282 26.4907 16.5411C26.644 16.1607 26.4623 15.7253 26.073 15.558Z" fill="#1E6DEB"/>
</svg>
