<?xml version="1.0" encoding="utf-8"?>
<!-- Generator: Adobe Illustrator 25.4.1, SVG Export Plug-In . SVG Version: 6.00 Build 0)  -->
<svg version="1.1" id="Capa_1" xmlns="http://www.w3.org/2000/svg" xmlns:xlink="http://www.w3.org/1999/xlink" x="0px" y="0px"
	 viewBox="0 0 149 22" style="enable-background:new 0 0 149 22;" xml:space="preserve">
<style type="text/css">
	.st0{fill:#FFFFFF;}
</style>
<path class="st0" d="M32,5.1L21.6,0.8c-2.6-1.1-5.5-1.1-8.1,0L3.1,5.1c-0.7,0.3-1.2,1-1.2,1.8s0.5,1.5,1.2,1.8l2,0.8
	c0.1,0,0.1,0.1,0.1,0.2c0,0.1,0,0.1-0.1,0.1l0,0c-0.6,0.6-1.1,1.2-1.4,2c-0.1,0.2-0.2,0.4-0.3,0.6c-0.6,0.3-1,0.9-1,1.6
	c0,0.6,0.3,1.1,0.8,1.4c-0.1,1.3-1.1,2.4-2.4,2.6c-0.3,0-0.4,0.3-0.3,0.6c0.4,1,1.5,1.8,2.7,1.8c1.5,0,2.8-1.2,2.8-2.6
	c0-0.8-0.3-1.6-0.9-2.1c0.6-0.3,1-0.9,1-1.6c0-0.4-0.1-0.7-0.3-1c0-0.1,0.1-0.2,0.1-0.3c0.4-0.8,1-1.4,1.7-1.9
	c0.1-0.1,0.3-0.1,0.4-0.1c0.1,0,0.2,0,0.3,0.1l5.1,2.1c1.3,0.5,2.6,0.8,4,0.8c1.4,0,2.8-0.3,4-0.8l10.3-4.3c0.7-0.3,1.2-1,1.2-1.8
	C33.2,6.1,32.7,5.4,32,5.1z M20.7,10.7c-1.9,0.8-4.2,0.8-6.1,0l-2.8-1.1c-0.1,0-0.1-0.1-0.1-0.1c0-0.1,0-0.1,0.1-0.1v0L17.2,7
	c0.5-0.2,0.5-0.8,0-1c0,0-0.9-0.4-1.2-0.5c-0.4-0.2-0.9-0.2-1.4,0c-1.3,0.5-4.7,2-6.1,2.5c-0.1,0-0.2,0-0.3,0c-0.1,0-0.2,0-0.3-0.1
	L5.5,7C5.4,7,5.4,6.9,5.4,6.9s0.1-0.2,0.1-0.2l9-3.7c2-0.8,4.2-0.8,6.2,0l8.9,3.7c0.1,0,0.1,0.1,0.1,0.2c0,0.1-0.1,0.1-0.1,0.2
	L20.7,10.7z"/>
<path class="st0" d="M45,4.5c-0.1-0.2-0.2-0.3-0.4-0.3h-2.4c-0.2,0-0.3,0.1-0.4,0.3l-5.6,12.2c-0.1,0.2,0,0.3,0.2,0.3h2.5
	c0.1,0,0.3-0.1,0.3-0.2l1.1-2.5h6.1l1.1,2.5c0.1,0.1,0.2,0.2,0.3,0.2h2.6c0.2,0,0.3-0.2,0.2-0.3L45,4.5z M41.3,12.1l2.1-4.9l2.1,4.9
	H41.3z"/>
<path class="st0" d="M60.5,7.7c-0.8-0.4-1.6-0.6-2.6-0.6c-1.4,0-2.5,0.4-3.2,1.3V7.5c0-0.2-0.1-0.3-0.3-0.3h-2.2
	c-0.2,0-0.3,0.1-0.3,0.3v12.8c0,0.2,0.1,0.3,0.3,0.3h2.3c0.2,0,0.3-0.1,0.3-0.3v-4.1c0-0.1,0.1-0.1,0.1,0c0.7,0.7,1.7,1.1,2.9,1.1
	c0.9,0,1.8-0.2,2.6-0.6c0.8-0.4,1.4-1,1.8-1.8c0.4-0.8,0.7-1.6,0.7-2.7s-0.2-1.9-0.7-2.7C61.9,8.7,61.3,8.2,60.5,7.7z M59.3,14.2
	c-0.5,0.5-1.1,0.7-1.9,0.7c-0.8,0-1.4-0.2-1.9-0.7s-0.7-1.2-0.7-2c0-0.8,0.2-1.5,0.7-2c0.5-0.5,1.1-0.7,1.9-0.7
	c0.8,0,1.4,0.2,1.9,0.7c0.5,0.5,0.7,1.2,0.7,2C60,13,59.8,13.7,59.3,14.2z"/>
<path class="st0" d="M73.1,7.7c-0.8-0.4-1.6-0.6-2.6-0.6c-1.4,0-2.5,0.4-3.2,1.3V7.5c0-0.2-0.1-0.3-0.3-0.3h-2.2
	c-0.2,0-0.3,0.1-0.3,0.3v12.8c0,0.2,0.1,0.3,0.3,0.3h2.3c0.2,0,0.3-0.1,0.3-0.3v-4.1c0-0.1,0.1-0.1,0.1,0c0.7,0.7,1.7,1.1,2.9,1.1
	c0.9,0,1.8-0.2,2.6-0.6c0.8-0.4,1.4-1,1.8-1.8c0.4-0.8,0.7-1.6,0.7-2.7s-0.2-1.9-0.7-2.7C74.5,8.7,73.9,8.2,73.1,7.7z M71.9,14.2
	c-0.5,0.5-1.1,0.7-1.9,0.7c-0.8,0-1.4-0.2-1.9-0.7c-0.5-0.5-0.7-1.2-0.7-2c0-0.8,0.2-1.5,0.7-2c0.5-0.5,1.1-0.7,1.9-0.7
	c0.8,0,1.4,0.2,1.9,0.7c0.5,0.5,0.7,1.2,0.7,2C72.6,13,72.4,13.7,71.9,14.2z"/>
<path class="st0" d="M80.1,3.5h-2.9v13.6h2.9V3.5z"/>
<path class="st0" d="M114.9,7.8c-0.8-0.4-1.8-0.7-2.9-0.7c-1.1,0-2,0.2-2.9,0.7c-0.8,0.4-1.5,1-2,1.8c-0.5,0.8-0.7,1.6-0.7,2.6
	c0,1,0.2,1.8,0.7,2.6c0.5,0.8,1.1,1.4,2,1.8c0.8,0.4,1.8,0.7,2.9,0.7s2-0.2,2.9-0.7c0.8-0.4,1.5-1,2-1.8c0.5-0.8,0.7-1.6,0.7-2.6
	c0-1-0.2-1.8-0.7-2.6C116.4,8.8,115.8,8.2,114.9,7.8z M113.9,14.2c-0.5,0.5-1.1,0.7-1.9,0.7c-0.8,0-1.4-0.2-1.9-0.7
	c-0.5-0.5-0.7-1.2-0.7-2c0-0.8,0.2-1.5,0.7-2c0.5-0.5,1.1-0.7,1.9-0.7s1.4,0.2,1.9,0.7c0.5,0.5,0.7,1.2,0.7,2
	C114.7,13,114.4,13.7,113.9,14.2z"/>
<path class="st0" d="M123.5,7.1c-0.8,0-1.6,0.1-2.4,0.3c-0.7,0.2-1.3,0.4-1.8,0.8c-0.1,0.1-0.1,0.2-0.1,0.3l0.8,1.6
	c0.1,0.1,0.2,0.2,0.3,0.1c0.3-0.2,0.7-0.4,1.1-0.5c0.5-0.2,1.1-0.2,1.6-0.2c0.8,0,1.4,0.2,1.8,0.5c0.3,0.3,0.5,0.7,0.6,1.2
	c0,0.1-0.1,0.2-0.2,0.2h-2.1c-1.5,0-2.6,0.3-3.3,0.8c-0.7,0.5-1.1,1.2-1.1,2.2c0,0.6,0.2,1.1,0.5,1.5c0.3,0.5,0.7,0.8,1.3,1.1
	c0.6,0.3,1.2,0.4,2,0.4c1.5,0,2.5-0.5,3.1-1.4v1c0,0.1,0.1,0.2,0.2,0.2h2.3c0.1,0,0.2-0.1,0.2-0.2v-5.4c0-1.5-0.4-2.6-1.3-3.3
	C126.3,7.5,125.1,7.1,123.5,7.1z M125.5,13.6c0,0.6-0.3,1.1-0.8,1.4c-0.4,0.2-0.8,0.3-1.3,0.3c-0.5,0-0.9-0.1-1.2-0.3
	c-0.3-0.2-0.4-0.5-0.4-0.9c0-0.8,0.6-1.2,1.8-1.2h1.8c0.1,0,0.2,0.1,0.2,0.2L125.5,13.6L125.5,13.6z"/>
<path class="st0" d="M132.7,8.5V7.5c0-0.1-0.1-0.2-0.2-0.2h-2.3c-0.1,0-0.2,0.1-0.2,0.2v9.4c0,0.1,0.1,0.2,0.2,0.2h2.5
	c0.1,0,0.2-0.1,0.2-0.2v-4.4c0-0.9,0.2-1.6,0.7-2.1c0.5-0.5,1.1-0.7,2-0.7c0.1,0,0.3,0,0.7,0V7.1c-0.8,0-1.5,0.1-2.1,0.4
	C133.6,7.7,133.1,8.1,132.7,8.5z"/>
<path class="st0" d="M148,3.5h-2.5c-0.1,0-0.2,0.1-0.2,0.2v4.5c-0.7-0.8-1.7-1.2-3-1.2c-1,0-1.8,0.2-2.6,0.6c-0.8,0.4-1.4,1-1.8,1.8
	c-0.4,0.8-0.7,1.7-0.7,2.7s0.2,1.9,0.7,2.7c0.4,0.8,1,1.4,1.8,1.8c0.8,0.4,1.6,0.6,2.6,0.6c1.4,0,2.4-0.4,3.2-1.3v0.9
	c0,0.1,0.1,0.2,0.2,0.2h2.3c0.1,0,0.2-0.1,0.2-0.2V3.7C148.2,3.6,148.1,3.5,148,3.5z M144.6,14.2c-0.5,0.5-1.1,0.7-1.8,0.7
	c-0.8,0-1.4-0.2-1.9-0.7c-0.5-0.5-0.7-1.2-0.7-2c0-0.8,0.2-1.5,0.7-2c0.5-0.5,1.1-0.7,1.9-0.7c0.7,0,1.4,0.2,1.8,0.7
	c0.5,0.5,0.7,1.2,0.7,2C145.3,13,145.1,13.7,144.6,14.2z"/>
<path class="st0" d="M92,6.9h-2.2c-0.1,0-0.3,0.1-0.3,0.2l-2,6.4l-2.8-6.4c-0.1-0.1-0.2-0.2-0.3-0.2H82c-0.2,0-0.3,0.2-0.2,0.3
	l4.4,9.5l0,0.1c-0.2,0.4-0.4,0.8-0.7,1c-0.5,0.3-1.2,0.3-1.7,0.1c-0.2-0.1-0.4-0.2-0.6-0.3c-0.1-0.1-0.3,0-0.3,0.1l-0.9,1.7
	c-0.1,0.1,0,0.2,0.1,0.3c0.3,0.2,0.7,0.4,1.2,0.6c0.5,0.2,1.1,0.3,1.7,0.3c1,0,1.9-0.2,2.6-0.7c0.6-0.4,1.2-1.1,1.6-2.1
	c0.1-0.3,0.2-0.5,0.3-0.8l3-9.6C92.2,7,92.1,6.9,92,6.9z"/>
<path class="st0" d="M103.1,10.5c-0.1,0-0.1-0.2,0-0.2c0.4-0.3,0.8-0.6,1.1-1c0.3-0.5,0.5-1,0.5-1.7c0-0.6-0.2-1.3-0.6-1.7
	c-0.8-1.1-2.3-1.6-4.4-1.6h-5.6c-0.2,0-0.3,0.1-0.3,0.3v12.3c0,0.2,0.1,0.3,0.3,0.3h6c1.7,0,3-0.3,3.9-0.9c0.9-0.6,1.3-1.5,1.3-2.6
	c0-0.8-0.2-1.5-0.6-2C104.2,11.1,103.7,10.8,103.1,10.5z M96.7,6.7c0-0.1,0.1-0.2,0.2-0.2h2.8c0.9,0,1.6,0.7,1.6,1.5
	s-0.7,1.5-1.6,1.5h-2.8c-0.1,0-0.2-0.1-0.2-0.2V6.7z M100.6,14.9H97c-0.2,0-0.3-0.1-0.3-0.3V12c0-0.2,0.2-0.3,0.3-0.3h3.5
	c0.9,0,1.6,0.7,1.6,1.6C102.2,14.1,101.4,14.9,100.6,14.9z"/>
<path class="st0" d="M26.1,15.6l-0.9-0.4c-0.4-0.2-0.9,0-1.1,0.4c-0.3,0.8-0.8,1.5-1.6,2.1c-1.3,1.1-3.1,1.6-4.9,1.6
	c-1.9,0-3.6-0.6-4.9-1.6c-0.8-0.6-1.3-1.3-1.6-2.1c-0.2-0.4-0.6-0.6-1.1-0.4l-0.9,0.4c-0.4,0.2-0.6,0.6-0.4,1
	c0.5,1.2,1.3,2.3,2.4,3.2c1.8,1.4,4.1,2.2,6.5,2.2c2.5,0,4.8-0.8,6.5-2.2c1.1-0.9,1.9-2,2.4-3.2C26.6,16.2,26.5,15.7,26.1,15.6z"/>
</svg>
