<svg xmlns="http://www.w3.org/2000/svg" viewBox="0 0 107.98 105.47"><defs><style>.cls-1{fill:#e6efff;}.cls-2{fill:none;stroke:#1e6deb;stroke-width:1.87px;}.cls-3{fill:#0452d0;}.cls-4{fill:#9dc3ff;}.cls-5{fill:#5c9bff;}.cls-6{fill:#fc789b;}</style></defs><g id="Capa_2" data-name="Capa 2"><g id="Capa_1-2" data-name="Capa 1"><path class="cls-1" d="M100.4,52.68c1.66-26.19-40.65-48.51-70.2-37C-1.93,28.12,4.31,80.87,38.8,88.34,67.48,94.54,98.89,76.36,100.4,52.68Z"/><line class="cls-2" x1="27.11" y1="51.12" x2="72.31" y2="20.99"/><line class="cls-2" x1="78.17" y1="81.97" x2="28.78" y2="49.33"/><line class="cls-2" x1="59.59" y1="99.8" x2="77.17" y2="81.39"/><line class="cls-2" x1="9.99" y1="17.91" x2="30.08" y2="48.88"/><line class="cls-2" x1="29.11" y1="52.57" x2="7.34" y2="73.5"/><line class="cls-2" x1="31.89" y1="47.58" x2="36.92" y2="81.89"/><line class="cls-2" x1="77.1" y1="48.55" x2="77.1" y2="80.36"/><line class="cls-2" x1="101.39" y1="58.34" x2="72.1" y2="22.35"/><line class="cls-2" x1="91.1" y1="2.29" x2="73.53" y2="22.38"/><circle class="cls-3" cx="77.85" cy="79.52" r="13.39"/><circle class="cls-4" cx="72.4" cy="22.18" r="10.46"/><circle class="cls-5" cx="29.3" cy="49.39" r="16.74"/><circle class="cls-6" cx="76.59" cy="48.97" r="6.28"/><circle class="cls-6" cx="9.63" cy="18.83" r="6.28"/><circle class="cls-6" cx="6.28" cy="72.4" r="6.28"/><circle class="cls-6" cx="37.25" cy="85.8" r="6.28"/><circle class="cls-6" cx="59.85" cy="99.19" r="6.28"/><circle class="cls-6" cx="101.7" cy="59.85" r="6.28"/><circle class="cls-6" cx="89.15" cy="6.28" r="6.28"/></g></g></svg>