<svg xmlns="http://www.w3.org/2000/svg" viewBox="0 0 93.54 87.61"><defs><style>.cls-1{fill:#e6efff;}.cls-2{fill:#70a7ff;}.cls-3{fill:#0e5fe1;}.cls-4,.cls-5{fill:#00307a;}.cls-5,.cls-6{stroke:#e6efff;}.cls-5{stroke-width:1.92px;}.cls-6,.cls-8{fill:none;stroke-width:1.92px;}.cls-7{fill:#003d9f;}.cls-8{stroke:#0e5fe1;}.cls-9{fill:#f0f5ff;}</style></defs><g id="Capa_2" data-name="Capa 2"><g id="Capa_1-2" data-name="Capa 1"><path class="cls-1" d="M1.52,57.83c-6.8-22.56,10-43.06,33.38-53.71C53.68-4.44,72.81,1,85.61,14.47c15.84,16.72,6.24,48-13.7,64.37C48.85,97.82,9.35,83.8,1.52,57.83Z"/><path class="cls-2" d="M3.15,26.8a2.42,2.42,0,0,1,2.1-2.69l73.86-9.17A2.39,2.39,0,0,1,81.79,17l6.33,50.88L9.48,77.68Z"/><path class="cls-2" d="M31.85,10.88a2.43,2.43,0,0,1,2-1.65L49.44,7.3a2.4,2.4,0,0,1,2.45,1.32l5,10.11A2.41,2.41,0,0,1,55,22.19l-24.22,3a2.41,2.41,0,0,1-2.59-3.13Z"/><rect class="cls-3" x="5.94" y="28.26" width="79.24" height="37.07" transform="translate(-5.42 5.97) rotate(-7.08)"/><path class="cls-4" d="M62,37.67,44.68,65.58,82.1,60.93Z"/><path class="cls-4" d="M10,19l5.17-.64A2.59,2.59,0,0,1,18,20.64h0a2.59,2.59,0,0,1-2.26,2.9l-5.16.64A2.6,2.6,0,0,1,7.7,21.92h0A2.61,2.61,0,0,1,10,19Z"/><path class="cls-4" d="M61.13,14l3.17-.39A1.6,1.6,0,0,1,66.08,15h0a1.6,1.6,0,0,1-1.39,1.78l-3.17.39a1.6,1.6,0,0,1-1.78-1.39h0A1.6,1.6,0,0,1,61.13,14Z"/><rect class="cls-4" x="67.32" y="12.8" width="6.39" height="3.2" rx="1.6" transform="translate(-1.24 8.8) rotate(-7.08)"/><circle class="cls-5" cx="45.28" cy="46.66" r="21.26"/><circle class="cls-3" cx="45.45" cy="46.66" r="16.66"/><path class="cls-6" d="M57.68,44.92a12.58,12.58,0,0,1-10.92,14"/><circle class="cls-7" cx="45.57" cy="46.75" r="5.8"/><path class="cls-8" d="M8.72,77.74l80.66-10"/><circle class="cls-9" cx="16.57" cy="33.79" r="3.54"/><rect class="cls-9" x="35.31" y="11.85" width="13.42" height="7.67" rx="0.96" transform="translate(-1.61 5.3) rotate(-7.08)"/></g></g></svg>