<svg width="114" height="113" viewBox="0 0 114 113" fill="none" xmlns="http://www.w3.org/2000/svg">
<g clip-path="url(#clip0_389_29333)">
<path d="M20.4909 65.0101C2.43139 16.906 74.7353 -4.07205 94.7197 28.9615C125.465 79.7826 39.9623 116.875 20.4909 65.0101Z" fill="#E6EFFF"/>
<path d="M88.147 42.9808C88.147 41.6484 87.0228 40.5922 85.693 40.6752L29.1813 44.2043C27.9637 44.2803 27.0151 45.29 27.0151 46.5099L27.0151 70.0561C27.0151 70.8693 27.4461 71.6274 28.1506 72.0335C49.5445 84.3625 70.4479 83.7915 87.3841 68.8822C87.8715 68.4531 88.147 67.8284 88.147 67.1789L88.147 42.9808Z" fill="#00307A"/>
<path d="M46.2942 77.1996L62.33 59.2201L26.676 47.8607L26.676 69.9702C26.676 70.8292 27.1527 71.6174 27.9125 72.0183C32.8108 74.6031 37.6028 77.1638 42.8463 78.3664C44.1183 78.6581 45.4255 78.1735 46.2942 77.1996Z" fill="#001C47"/>
<path d="M56.2681 24.0929L105.033 39.0493C106.374 39.4607 106.512 41.305 105.247 41.9108L59.7247 63.7031C59.3631 63.8762 58.9484 63.9015 58.5685 63.7737L8.07433 46.7805C6.73202 46.3287 6.65979 44.4573 7.96329 43.9034L54.352 24.1928C54.959 23.9349 55.6376 23.8995 56.2681 24.0929Z" fill="#003D9F"/>
<path d="M67.9874 42.0113C72.6317 43.6627 78.0895 47.202 81.3277 49.467C82.5512 50.3227 82.2531 52.1602 80.8373 52.6341L79.6451 53.0332C79.2658 53.1601 78.8559 53.1619 78.4755 53.0383L54.9627 45.3968C53.8022 45.0196 53.3097 43.6487 53.9648 42.6192L55.7015 39.8901C56.1054 39.2555 56.8483 38.9264 57.5847 39.0797C59.4945 39.4774 63.4499 40.3979 67.9874 42.0113Z" fill="#001535"/>
<path d="M69.4106 58.938L89.603 49.8188" stroke="#001535" stroke-width="1.86675" stroke-linecap="round"/>
<path d="M57.6345 39.7455C57.6345 39.7455 69.5744 41.6432 76.9811 45.6717C86.8062 51.0156 85.8166 68.7688 85.8166 68.7688" stroke="#FA6772" stroke-width="2.80012" stroke-linecap="round"/>
<rect x="80.4986" y="65.2261" width="9.84455" height="9.84455" rx="3.7335" transform="rotate(-15.225 80.4986 65.2261)" fill="#FA6772"/>
<path d="M84.7744 72.5643L90.3162 71.056L104.435 90.0174C104.744 90.432 104.564 91.0198 104.069 91.1683C101.796 91.8498 96.058 93.2842 91.7437 91.923C83.1888 89.224 84.7744 72.5643 84.7744 72.5643Z" fill="#FA6772"/>
<path d="M89.8348 80.2748C89.8348 80.2748 90.155 84.2485 91.141 86.5487C92.5559 89.8497 96.886 92.3522 96.886 92.3522" stroke="#B80013" stroke-width="1.86675" stroke-linecap="round"/>
<path d="M88.3963 72.7324L84.5921 73.1356" stroke="#B80013" stroke-width="1.86675" stroke-linecap="round"/>
<path d="M43.6336 101.888L44.3941 89.7665L33.2975 85.4186L29.4991 98.2158C29.2975 98.8953 29.8969 99.5428 30.5899 99.394L36.9134 98.036C37.2204 97.9701 37.54 98.0629 37.7638 98.283L42.0476 102.495C42.618 103.056 43.5835 102.687 43.6336 101.888Z" fill="#FD858A"/>
<path d="M69.622 95.9033L70.4079 90.9678C70.6136 89.6762 69.8977 88.4143 68.6835 87.9281L17.8501 67.5726C16.347 66.9706 14.6481 67.7653 14.1467 69.3049L11.0587 78.7869C10.5711 80.2841 11.4135 81.8889 12.9227 82.3379L66.0582 98.1469C67.68 98.6294 69.356 97.5743 69.622 95.9033Z" fill="#468CFB"/>
<path d="M12.7305 71.4853L14.2471 62.8993C14.5964 60.9216 16.8524 59.9327 18.5516 61.0032C24.9394 65.028 38.289 73.1789 44.9998 75.3725C51.8087 77.5981 63.513 77.503 68.8355 77.3231C70.3763 77.271 71.7006 78.4407 71.8055 79.9787L72.5022 90.1911C72.6117 91.797 71.3569 93.1576 69.7476 93.1306C63.84 93.0313 50.3301 92.4946 40.8402 89.7387C29.3668 86.4067 17.4179 77.1332 13.6595 74.0527C12.9001 73.4303 12.5597 72.4522 12.7305 71.4853Z" fill="#B6D2FF"/>
<path d="M22.2005 63.2993C28.3221 68.1788 29.7885 69.1075 36.8164 72.5561" stroke="#1E6DEB" stroke-width="1.86675" stroke-linecap="round"/>
<path d="M12.4539 73.5307C12.4539 73.5307 30.1035 87.0618 44.2524 90.6909C54.3243 93.2743 70.7936 92.8083 70.7936 92.8083" stroke="#003D9F" stroke-width="1.86675" stroke-linecap="round"/>
<path d="M44.3961 92.1683L32.2735 88.3602L31.2162 92.439L43.8613 96.9971L44.3961 92.1683Z" fill="#B80013"/>
<path d="M45.632 91.8521L46.7399 75.0927C46.7684 74.6616 46.4974 74.2673 46.0848 74.1395L38.8888 71.9107C38.4376 71.771 37.9531 71.9903 37.7605 72.4216L31.0539 87.4349C30.8258 87.9457 31.095 88.541 31.6292 88.707L44.4237 92.6818C45 92.8609 45.5922 92.4542 45.632 91.8521Z" fill="#FD858A"/>
<path d="M71.9336 79.3369V91.4708" stroke="#1E6DEB" stroke-width="1.86675" stroke-linecap="round"/>
<path d="M10.3309 47.6021L56.9996 63.4694" stroke="#1E6DEB" stroke-width="1.86675" stroke-linecap="round"/>
</g>
<defs>
<clipPath id="clip0_389_29333">
<rect width="112.005" height="112.005" fill="white" transform="translate(0.997498)"/>
</clipPath>
</defs>
</svg>
