<svg width="112" height="113" viewBox="0 0 112 113" fill="none" xmlns="http://www.w3.org/2000/svg">
<path d="M19.1988 44.3892C7.10349 64.0622 14.3241 81.3981 31.6408 89.8204C45.564 96.5923 68.2005 91.1991 83.0058 79.1376C101.334 64.2061 98.7446 37.4971 85.975 23.9948C71.2093 8.38201 33.1198 21.7469 19.1988 44.3892Z" fill="#E6EFFF"/>
<path d="M75.9973 92.2962C75.5515 94.4768 58.8731 94.7494 58.3004 92.6336C57.7277 90.5178 58.3004 78.1182 62.3799 73.1358C68.0326 66.2319 78.4169 64.4822 78.4169 64.4822C78.4169 64.4822 79.3583 53.5988 79.896 52.1936C80.4337 50.7883 83.1998 49.7229 83.1998 49.7229C83.1998 49.7229 83.3268 47.5887 84.2877 46.7212C84.9553 46.1186 86.6886 45.8207 86.6886 45.8207C86.6886 45.8207 87.2667 44.5743 88.1891 44.0197C89.4133 43.2837 91.0151 43.6417 91.0151 43.6417C91.0151 43.6417 91.6026 42.4769 92.3906 41.9185C93.7504 40.955 95.9919 41.6184 95.9919 41.6184C95.9919 41.6184 96.7047 59.933 95.9919 62.6299C95.2791 65.3269 89.3207 76.1485 86.6886 77.9384C82.2899 80.9297 77.187 82.3615 75.9973 84.7356C74.8076 87.1096 76.4431 90.1156 75.9973 92.2962Z" fill="#D9AA7A"/>
<path d="M63.0867 93.6145C62.8035 92.5533 76.0654 82.2822 76.0654 84.7516C76.0654 87.221 76.535 92.588 76.0654 93.6145C75.5958 94.6411 63.3699 94.6758 63.0867 93.6145Z" fill="#D98A45"/>
<path d="M80.7951 55.8977C78.8262 58.814 79.0316 64.5107 79.0316 64.5107C79.0316 64.5107 81.954 62.9338 84.2067 60.2306C85.197 59.0422 86.4955 58.341 88.0363 58.2032C89.3597 58.0847 91.3764 59.3029 91.3764 59.3029C91.3764 59.3029 95.6373 50.3065 93.2175 47.3902C89.9491 43.4513 83.634 51.6929 80.7951 55.8977Z" fill="#D98A45"/>
<path d="M81.1919 72.2772C86.1306 64.0709 94.5812 61.9113 91.7737 58.6719C85.5109 54.137 83.1355 63.6389 76.8727 64.7187C70.61 65.7984 66.8714 68.3556 63.632 71.3789" stroke="#98511B" stroke-width="2" stroke-linecap="round"/>
<path d="M82.9194 50.0339L82.4875 61.2637" stroke="#98511B" stroke-width="2" stroke-linecap="round"/>
<path d="M86.8066 46.1467V57.3765" stroke="#98511B" stroke-width="2" stroke-linecap="round"/>
<path d="M91.1257 43.9873V57.3766" stroke="#98511B" stroke-width="2" stroke-linecap="round"/>
<path d="M32.0126 91.7508C32.6897 94.702 48.7924 94.6844 49.185 92.8411C49.5776 90.9979 49.0324 77.5728 44.9529 72.5904C39.3002 65.6865 28.9159 63.9368 28.9159 63.9368C28.9159 63.9368 27.9745 53.0534 27.4368 51.6482C26.8991 50.2429 24.133 49.1775 24.133 49.1775C24.133 49.1775 24.006 47.0433 23.0451 46.1758C22.3775 45.5732 20.6442 45.2753 20.6442 45.2753C20.6442 45.2753 20.0661 44.0289 19.1437 43.4743C17.9195 42.7383 16.3177 43.0963 16.3177 43.0963C16.3177 43.0963 15.7302 41.9315 14.9422 41.3731C13.5824 40.4096 11.3409 41.073 11.3409 41.073C11.3409 41.073 10.6281 59.3876 11.3409 62.0845C12.0537 64.7815 18.0121 75.6031 20.6442 77.393C25.0429 80.3843 30.1133 81.8953 31.3355 83.9967C32.5577 86.0982 31.3355 88.7997 32.0126 91.7508Z" fill="#D9AA7A"/>
<path d="M38.1915 93.5304C37.9075 92.1718 46.3185 75.2774 47.5801 79.4649C48.8418 83.6524 49.6168 91.9088 49.1851 93.1133C48.7534 94.3179 38.4755 94.889 38.1915 93.5304Z" fill="#D98A45"/>
<path d="M26.5378 55.3523C28.5067 58.2686 28.3013 63.9653 28.3013 63.9653C28.3013 63.9653 25.3789 62.3884 23.1262 59.6852C22.1359 58.4968 20.8374 57.7956 19.2966 57.6578C17.9732 57.5393 15.9565 58.7575 15.9565 58.7575C15.9565 58.7575 11.6956 49.7611 14.1154 46.8448C17.3838 42.9058 23.6989 51.1475 26.5378 55.3523Z" fill="#D98A45"/>
<path d="M26.1412 71.7318C21.2025 63.5255 12.7519 61.3659 15.5594 58.1265C21.8222 53.5916 24.1976 63.0935 30.4604 64.1733C36.7231 65.253 40.4942 67.8101 43.7336 70.8335" stroke="#98511B" stroke-width="2" stroke-linecap="round"/>
<path d="M24.4135 49.4885L24.8454 60.7183" stroke="#98511B" stroke-width="2" stroke-linecap="round"/>
<path d="M20.5263 45.6013V56.831" stroke="#98511B" stroke-width="2" stroke-linecap="round"/>
<path d="M16.2072 43.4419V56.8312" stroke="#98511B" stroke-width="2" stroke-linecap="round"/>
<path d="M84.31 20.5327C84.8316 19.9389 85.8104 20.3145 85.801 21.1048L85.7799 22.8673C85.7769 23.1158 85.8827 23.3531 86.0694 23.5171L87.3936 24.6804C87.9874 25.202 87.6119 26.1808 86.8216 26.1714L85.0591 26.1503C84.8106 26.1474 84.5732 26.2531 84.4092 26.4398L83.246 27.7641C82.7244 28.3578 81.7456 27.9823 81.755 27.192L81.7761 25.4295C81.779 25.181 81.6733 24.9436 81.4866 24.7797L80.1623 23.6164C79.5685 23.0948 79.9441 22.116 80.7344 22.1254L82.4969 22.1465C82.7454 22.1494 82.9827 22.0437 83.1467 21.857L84.31 20.5327Z" fill="#85B3FF"/>
<path d="M63.0486 21.5075C59.4266 21.6469 56.7637 24.0627 55.3979 25.6465C54.9383 26.1794 53.9412 26.0916 53.5644 25.4972C52.4771 23.7822 50.2084 21.1752 46.3204 20.8107C35.1683 19.765 30.2893 30.5685 34.1228 39.6297C38.2866 49.4712 53.9875 59.1458 53.9875 59.1458C53.9875 59.1458 72.6116 48.207 74.8977 36.4931C76.7591 26.9551 72.1096 21.159 63.0486 21.5075Z" fill="#FC8BA9"/>
<path d="M70.1735 40.9108C73.1376 39.4287 57.9075 56.7205 52.4559 55.3573C45.616 53.647 64.1768 43.9092 70.1735 40.9108Z" fill="#FA3E70"/>
<path d="M37.8048 25.4871C34.4933 28.2909 34.3535 33.8553 36.1942 35.7681C37.954 37.5968 50.4592 28.3561 47.6983 24.7698C45.2684 21.6136 40.8202 22.9339 37.8048 25.4871Z" fill="#FDB2C6"/>
<path d="M45.8477 25.2115C46.122 24.4703 47.1704 24.4703 47.4446 25.2115L48.0495 26.846C48.1357 27.0791 48.3194 27.2628 48.5525 27.349L50.187 27.9538C50.9282 28.2281 50.9282 29.2765 50.187 29.5508L48.5525 30.1556C48.3194 30.2418 48.1357 30.4256 48.0495 30.6586L47.4446 32.2931C47.1704 33.0343 46.122 33.0343 45.8477 32.2931L45.2429 30.6586C45.1567 30.4256 44.9729 30.2418 44.7399 30.1556L43.1054 29.5508C42.3642 29.2765 42.3642 28.2281 43.1054 27.9538L44.7399 27.349C44.9729 27.2628 45.1567 27.0791 45.2429 26.846L45.8477 25.2115Z" fill="white"/>
<circle cx="74.5742" cy="19.6695" r="1.34085" fill="#85B3FF"/>
<circle cx="27.3269" cy="37.781" r="1.34085" fill="#85B3FF"/>
</svg>
