<svg width="112" height="112" viewBox="0 0 112 112" fill="none" xmlns="http://www.w3.org/2000/svg">
<path d="M10.8848 41.2703C-2.06977 63.9412 9.96987 81.7909 30.7684 92.8812C47.491 101.798 71.1529 100 87.7497 86.5555C108.296 69.9115 103.619 37.9623 87.8334 21.1056C69.5801 1.6141 25.7947 15.1773 10.8848 41.2703Z" fill="#E6EFFF"/>
<path d="M25.1984 22.3639C17.4002 19.3645 12.2927 22.9917 9.77915 26.4698C8.99895 27.5494 9.86643 28.8972 11.1984 28.8972H75.6152C77.0558 28.8972 77.9358 27.3341 77.0757 26.1783C69.3119 15.7445 58.7439 17.5804 54.1318 20.0305C38.4518 8.08385 28.3095 16.6083 25.1984 22.3639Z" fill="white"/>
<path d="M45.7316 77.4308C37.9334 74.4314 32.8259 78.0586 30.3123 81.5367C29.5321 82.6163 30.3996 83.9641 31.7316 83.9641H99.3983C91.5583 70.5242 79.6428 72.453 74.665 75.0974C58.985 63.1507 48.8428 71.6752 45.7316 77.4308Z" fill="white"/>
<path d="M51.3918 97.3518L60.558 86.2334L65.7864 93.811L53.851 101.193C53.0418 101.694 51.9774 101.307 51.678 100.404L51.1303 98.7524C50.9708 98.2716 51.0696 97.7427 51.3918 97.3518Z" fill="#70A7FF"/>
<path d="M83.6384 86.6591L69.6451 83.2202L69.98 92.4204L83.9617 91.2088C84.9096 91.1267 85.5321 90.1808 85.2327 89.2777L84.685 87.626C84.5255 87.1452 84.1302 86.78 83.6384 86.6591Z" fill="#70A7FF"/>
<rect x="29.6484" y="43.3306" width="6.62803" height="9.57382" rx="1.47301" transform="rotate(-18.345 29.6484 43.3306)" fill="#1E6DEB"/>
<rect x="62.5059" y="32.436" width="6.62803" height="9.57382" rx="1.47301" transform="rotate(-18.345 62.5059 32.436)" fill="#1E6DEB"/>
<path d="M37.5873 27.4858L53.1846 74.5234C53.7607 76.2609 54.5505 77.9201 55.5359 79.4629L68.2021 99.2931C69.0181 100.571 70.9992 99.9311 70.9141 98.4175L69.5964 74.9695C69.4871 73.0251 69.1212 71.1036 68.5083 69.2551L53.1365 22.8974C52.5654 21.1752 51.8604 19.4958 50.8694 17.9759C48.125 13.7671 43.5737 8.45208 39.9359 9.65836C36.1699 10.9071 36.0407 18.2631 36.594 23.2435C36.7549 24.6917 37.1287 26.1027 37.5873 27.4858Z" fill="#9DC3FF"/>
<path d="M11.2346 72.4677L41.8802 40.4384L48.2548 59.6629L38.1183 63.0241L12.5972 82.7853C11.7939 83.4073 10.6169 83.0486 10.2972 82.0843L9.56541 79.8774C8.70711 77.289 9.34931 74.4381 11.2346 72.4677Z" fill="#70A7FF"/>
<path d="M100.97 42.7123L57.2585 35.339L63.6332 54.5635L73.7697 51.2023L106.042 51.7999C107.057 51.8188 107.787 50.8279 107.467 49.8636L106.735 47.6567C105.877 45.0683 103.659 43.1659 100.97 42.7123Z" fill="#70A7FF"/>
<path d="M63.5938 80.1826L68.2299 94.1641" stroke="#3280FB" stroke-width="1.86667" stroke-linecap="round"/>
<path d="M49.2441 22.8657L65.4706 71.8009" stroke="white" stroke-width="1.86667" stroke-linecap="round"/>
<path d="M41.6465 40.9038L47.7893 59.4293" stroke="#1E6DEB" stroke-width="1.86667" stroke-linecap="round"/>
<path d="M60.207 87.5137L64.3884 94.2739" stroke="#1E6DEB" stroke-width="1.86667" stroke-linecap="round"/>
<path d="M37.3729 18.6549C38.503 15.8232 41.5761 11.4419 47.5087 15.2939" stroke="#1E6DEB" stroke-width="1.86667" stroke-linecap="round"/>
<path d="M32.2006 49.8556L36.8656 45.2053" stroke="#00307A" stroke-width="1.86667" stroke-linecap="round"/>
<path d="M71.1147 37.34L64.5953 36.3983" stroke="#00307A" stroke-width="1.86667" stroke-linecap="round"/>
<path d="M47.906 59.7793L38.4685 62.9087L12.4686 82.7811" stroke="#1E6DEB" stroke-width="1.86667" stroke-linecap="round"/>
<path d="M64.3359 54.3315L73.7734 51.2022L106.496 51.6029" stroke="#1E6DEB" stroke-width="1.86667" stroke-linecap="round"/>
</svg>
