<svg width="203" height="48" viewBox="0 0 203 48" fill="none" xmlns="http://www.w3.org/2000/svg">
<path fill-rule="evenodd" clip-rule="evenodd" d="M18.9836 10.1366C22.2069 8.53193 26.0009 8.53193 29.2242 10.1366L44.1955 17.59C44.8079 17.8949 45.1948 18.5182 45.1948 19.2C45.1948 19.8818 44.8079 20.505 44.1955 20.8099L29.2242 28.2633C26.0009 29.868 22.2069 29.868 18.9836 28.2633L11.8852 24.7294C10.8123 25.4835 9.94121 26.4864 9.34661 27.6486C9.53464 27.9904 9.64156 28.3828 9.64156 28.8C9.64156 29.699 9.14509 30.4826 8.41024 30.8937C9.16495 31.5535 9.64134 32.5213 9.64134 33.5999C9.64134 35.5881 8.02258 37.1999 6.02575 37.1999C4.23414 37.1999 2.74689 35.9024 2.46011 34.1996C4.34208 34.1744 5.87682 32.7174 6.01571 30.873C5.30091 30.4565 4.82078 29.6841 4.82078 28.8C4.82078 27.7653 5.47832 26.8836 6.40001 26.5465C6.99426 25.2889 7.81768 24.1566 8.82372 23.2053L4.01231 20.8099C3.39986 20.505 3.01298 19.8818 3.01298 19.2C3.01298 18.5182 3.39986 17.8949 4.01231 17.59L18.9836 10.1366ZM20.6005 25.0434L15.8248 22.6658L24.2312 18.4808C24.6753 18.2596 24.6753 17.6286 24.2312 17.4075L22.8837 16.7366C22.2051 16.3988 21.4064 16.3988 20.7278 16.7366L12.3214 20.9217L8.86312 19.2L20.6005 13.3566C22.8059 12.2586 25.4018 12.2586 27.6073 13.3566L39.3447 19.2L27.6073 25.0434C25.4018 26.1413 22.8059 26.1413 20.6005 25.0434Z" fill="white"/>
<path d="M16.5514 31.3266C16.286 30.867 15.7198 30.6435 15.2332 30.8588L13.6914 31.5411C13.2048 31.7565 12.9826 32.3264 13.2336 32.794C17.8469 41.387 30.3608 41.387 34.9741 32.794C35.2252 32.3264 35.003 31.7565 34.5164 31.5411L32.9745 30.8588C32.4879 30.6435 31.9218 30.867 31.6563 31.3266C28.335 37.0762 19.8728 37.0762 16.5514 31.3266Z" fill="white"/>
<path d="M61.0913 15.8098C60.996 15.5995 60.7863 15.4646 60.5513 15.4646H57.2571C57.0253 15.4646 56.8124 15.5995 56.7171 15.8098L49.1727 32.5371C49.0711 32.7599 49.2363 33.0077 49.4841 33.0077H52.8671C53.0514 33.0077 53.2197 32.8979 53.2896 32.7285L54.7476 29.2487H62.9941L64.4521 32.7285C64.522 32.8979 64.6903 33.0077 64.8746 33.0077H68.3561C68.6039 33.0077 68.7691 32.7567 68.6674 32.5339L61.0913 15.8098ZM56.0628 26.1675L58.8804 19.4495L61.698 26.1675H56.0628Z" fill="white"/>
<path d="M81.9784 20.1897C80.9397 19.6124 79.7834 19.3237 78.5159 19.3237C76.6386 19.3237 75.2091 19.9074 74.2275 21.0777V19.9293C74.2275 19.7065 74.0433 19.5245 73.8178 19.5245H70.8572C70.6316 19.5245 70.4474 19.7065 70.4474 19.9293V37.4662C70.4474 37.689 70.6316 37.871 70.8572 37.871H73.9956C74.2212 37.871 74.4054 37.689 74.4054 37.4662V31.7931C74.4054 31.7147 74.4975 31.6802 74.5547 31.7367C75.5395 32.7188 76.8577 33.2114 78.5159 33.2114C79.7834 33.2114 80.9397 32.9227 81.9784 32.3454C83.0203 31.768 83.8335 30.9585 84.4275 29.9136C85.0184 28.8688 85.317 27.6544 85.317 26.2676C85.317 24.8807 85.0216 23.6664 84.4275 22.6215C83.8367 21.5766 83.0203 20.764 81.9784 20.1897ZM80.3297 28.9849C79.6785 29.6626 78.8463 30.0015 77.8298 30.0015C76.8164 30.0015 75.981 29.6626 75.3298 28.9849C74.6786 28.3071 74.3514 27.4034 74.3514 26.2644C74.3514 25.1286 74.6786 24.2218 75.3298 23.544C75.981 22.8662 76.8133 22.5305 77.8298 22.5305C78.8431 22.5305 79.6785 22.8694 80.3297 23.544C80.9809 24.2218 81.305 25.1286 81.305 26.2644C81.3081 27.4034 80.9809 28.3102 80.3297 28.9849Z" fill="white"/>
<path d="M98.9947 20.1897C97.956 19.6124 96.7997 19.3237 95.5322 19.3237C93.6549 19.3237 92.2254 19.9074 91.2439 21.0777V19.9293C91.2439 19.7065 91.0596 19.5245 90.8341 19.5245H87.8735C87.648 19.5245 87.4637 19.7065 87.4637 19.9293V37.4662C87.4637 37.689 87.648 37.871 87.8735 37.871H91.012C91.2375 37.871 91.4217 37.689 91.4217 37.4662V31.7931C91.4217 31.7147 91.5139 31.6802 91.571 31.7367C92.5558 32.7188 93.8741 33.2114 95.5322 33.2114C96.7997 33.2114 97.956 32.9227 98.9947 32.3454C100.037 31.768 100.85 30.9585 101.444 29.9136C102.035 28.8688 102.333 27.6544 102.333 26.2676C102.333 24.8807 102.038 23.6664 101.444 22.6215C100.85 21.5766 100.033 20.764 98.9947 20.1897ZM97.3429 28.9849C96.6917 29.6626 95.8594 30.0015 94.8429 30.0015C93.8296 30.0015 92.9941 29.6626 92.3429 28.9849C91.6918 28.3071 91.3646 27.4034 91.3646 26.2644C91.3646 25.1286 91.6918 24.2218 92.3429 23.544C92.9941 22.8662 93.8264 22.5305 94.8429 22.5305C95.8562 22.5305 96.6917 22.8694 97.3429 23.544C97.9941 24.2218 98.3181 25.1286 98.3181 26.2644C98.3213 27.4034 97.9941 28.3102 97.3429 28.9849Z" fill="white"/>
<path d="M108.405 14.4099H104.447V33.0073H108.405V14.4099Z" fill="white"/>
<path d="M155.277 20.2149C154.143 19.6218 152.856 19.3237 151.42 19.3237C149.981 19.3237 148.692 19.6218 147.551 20.2149C146.411 20.8079 145.518 21.63 144.873 22.6843C144.232 23.7354 143.908 24.9309 143.908 26.2676C143.908 27.6042 144.229 28.7997 144.873 29.8509C145.515 30.902 146.408 31.7272 147.551 32.3203C148.695 32.9133 149.981 33.2114 151.42 33.2114C152.859 33.2114 154.143 32.9133 155.277 32.3203C156.411 31.7272 157.297 30.9052 157.942 29.8509C158.584 28.7997 158.904 27.6042 158.904 26.2676C158.904 24.9309 158.584 23.7354 157.942 22.6843C157.3 21.63 156.411 20.8079 155.277 20.2149ZM153.92 28.9849C153.269 29.6626 152.437 30.0015 151.42 30.0015C150.407 30.0015 149.568 29.6626 148.908 28.9849C148.247 28.3071 147.917 27.4034 147.917 26.2644C147.917 25.1286 148.247 24.2218 148.908 23.544C149.568 22.8662 150.404 22.5305 151.42 22.5305C152.437 22.5305 153.269 22.8694 153.92 23.544C154.572 24.2218 154.896 25.1286 154.896 26.2644C154.899 27.4034 154.572 28.3102 153.92 28.9849Z" fill="white"/>
<path d="M166.823 19.3237C165.724 19.3237 164.653 19.4649 163.614 19.7505C162.684 20.0046 161.87 20.3529 161.175 20.7953C161.035 20.8832 160.994 21.0652 161.067 21.2095L162.185 23.362C162.274 23.5346 162.49 23.5817 162.652 23.4718C163.081 23.1863 163.576 22.9541 164.142 22.7721C164.844 22.5462 165.558 22.4332 166.286 22.4332C167.334 22.4332 168.122 22.6623 168.646 23.1235C169.1 23.522 169.358 24.068 169.418 24.7583C169.434 24.9372 169.278 25.0909 169.097 25.0909H166.286C164.291 25.0909 162.814 25.4518 161.858 26.1672C160.902 26.8857 160.425 27.871 160.425 29.1261C160.425 29.9105 160.628 30.6133 161.035 31.2315C161.442 31.8496 162.029 32.3328 162.798 32.6843C163.567 33.0357 164.475 33.2114 165.527 33.2114C167.557 33.2114 168.945 32.5839 169.688 31.3319V32.6937C169.688 32.8694 169.831 33.0106 170.009 33.0106H173.074C173.252 33.0106 173.395 32.8694 173.395 32.6937V25.3137C173.395 23.3087 172.83 21.8088 171.696 20.8142C170.558 19.8226 168.935 19.3237 166.823 19.3237ZM169.434 28.1628C169.434 28.9629 169.011 29.7003 168.316 30.1144C167.792 30.4251 167.191 30.5788 166.515 30.5788C165.822 30.5788 165.276 30.4314 164.879 30.1395C164.482 29.8477 164.281 29.4492 164.281 28.9503C164.281 27.8961 165.095 27.3721 166.718 27.3721H169.11C169.288 27.3721 169.431 27.5133 169.431 27.689V28.1628H169.434Z" fill="white"/>
<path d="M179.231 21.3039V19.8417C179.231 19.666 179.088 19.5248 178.91 19.5248H175.768C175.591 19.5248 175.448 19.666 175.448 19.8417V32.6939C175.448 32.8696 175.591 33.0108 175.768 33.0108H179.085C179.263 33.0108 179.406 32.8696 179.406 32.6939V26.6412C179.406 25.3892 179.726 24.4479 180.371 23.8203C181.013 23.1928 181.902 22.879 183.036 22.879C183.189 22.879 183.484 22.8947 183.926 22.9292V19.3208C182.878 19.3208 181.95 19.4871 181.146 19.8228C180.343 20.1586 179.704 20.6512 179.231 21.3039Z" fill="white"/>
<path d="M199.742 14.4099H196.425C196.247 14.4099 196.104 14.5511 196.104 14.7268V20.9521C195.123 19.8665 193.76 19.3236 192.019 19.3236C190.733 19.3236 189.57 19.6092 188.531 20.1771C187.489 20.745 186.673 21.5546 186.082 22.6088C185.488 23.66 185.193 24.8806 185.193 26.2675C185.193 27.6543 185.488 28.8749 186.082 29.9261C186.673 30.9804 187.489 31.7899 188.531 32.3578C189.57 32.9258 190.736 33.2113 192.019 33.2113C193.881 33.2113 195.301 32.6277 196.282 31.4573V32.6936C196.282 32.8693 196.425 33.0105 196.603 33.0105H199.742C199.919 33.0105 200.062 32.8693 200.062 32.6936V14.7268C200.062 14.5542 199.916 14.4099 199.742 14.4099ZM195.189 28.9847C194.529 29.6625 193.7 30.0014 192.702 30.0014C191.689 30.0014 190.85 29.6625 190.19 28.9847C189.529 28.307 189.198 27.4033 189.198 26.2643C189.198 25.1285 189.529 24.2216 190.19 23.5439C190.85 22.8661 191.686 22.5304 192.702 22.5304C193.7 22.5304 194.529 22.8693 195.189 23.5439C195.85 24.2216 196.181 25.1285 196.181 26.2643C196.181 27.4033 195.85 28.3101 195.189 28.9847Z" fill="white"/>
<path d="M124.326 19.0039H121.34C121.143 19.0039 120.968 19.1325 120.911 19.3176L118.237 28.1002L114.52 19.2769C114.45 19.1106 114.285 19.0007 114.101 19.0007H110.876C110.632 19.0007 110.467 19.2518 110.565 19.4714L116.423 32.4742L116.369 32.606C116.14 33.1112 115.857 33.6446 115.384 33.9646C114.695 34.4322 113.78 34.3475 113.037 34.0651C112.735 33.9521 112.458 33.8046 112.207 33.6258C112.052 33.5159 111.833 33.5756 111.747 33.7419L110.514 36.1109C110.444 36.2458 110.476 36.4121 110.597 36.5062C111.029 36.8357 111.563 37.0993 112.192 37.2969C112.925 37.526 113.665 37.6421 114.418 37.6421C115.794 37.6421 116.969 37.3063 117.944 36.6349C118.805 36.0418 119.545 35.066 120.162 33.7136C120.327 33.3528 120.457 32.9731 120.575 32.5966L124.65 19.4306C124.717 19.2204 124.555 19.0039 124.326 19.0039Z" fill="white"/>
<path d="M139.272 23.999C139.142 23.9488 139.129 23.7856 139.247 23.7135C139.847 23.3495 140.324 22.8788 140.68 22.3046C141.096 21.6363 141.302 20.8707 141.302 20.0172C141.302 19.1637 141.061 18.304 140.537 17.6231C139.434 16.1829 137.449 15.4612 134.577 15.4612H126.998C126.785 15.4612 126.614 15.6306 126.614 15.8408V32.6247C126.614 32.8349 126.785 33.0043 126.998 33.0043H135.082C137.401 33.0043 139.164 32.5901 140.371 31.7649C141.582 30.9366 142.185 29.7568 142.185 28.2193C142.185 27.1336 141.896 26.2174 141.321 25.4737C140.813 24.8179 140.13 24.3253 139.272 23.999ZM130.683 18.8123C130.683 18.6303 130.832 18.486 131.013 18.486H134.752C135.937 18.486 136.896 19.4336 136.896 20.6039C136.896 21.7743 135.937 22.7219 134.752 22.7219H131.013C130.829 22.7219 130.683 22.5745 130.683 22.3956V18.8123ZM135.896 29.9356H131.137C130.886 29.9356 130.686 29.7348 130.686 29.49V26.0511C130.686 25.8032 130.889 25.6055 131.137 25.6055H135.896C137.106 25.6055 138.088 26.5751 138.088 27.7706C138.088 28.966 137.106 29.9356 135.896 29.9356Z" fill="white"/>
</svg>
