<svg xmlns="http://www.w3.org/2000/svg" viewBox="0 0 103.67 90.47"><defs><style>.cls-1{fill:#e6efff;}.cls-2,.cls-6,.cls-7{fill:none;}.cls-2{stroke:#f9b457;stroke-width:5.06px;}.cls-3{fill:#f9b457;}.cls-4{fill:#ed8244;}.cls-5{fill:#b6d2ff;}.cls-6{stroke:#1e6deb;}.cls-6,.cls-7{stroke-linecap:round;stroke-width:1.87px;}.cls-7{stroke:#9d4820;}</style></defs><g id="Capa_2" data-name="Capa 2"><g id="Capa_1-2" data-name="Capa 1"><path class="cls-1" d="M44.31,84.84C18.22,84-1.13,64.15.05,43.12,1.13,23.91,33.71.93,57.48,0c26-1,30.83,25.26,31.69,46.33S70.32,85.7,44.31,84.84Z"/><path class="cls-2" d="M29.54,22.2l-1-5.48A5.18,5.18,0,0,1,32,10.87L49.62,5A5.18,5.18,0,0,1,55.9,7.54l2.5,5"/><path class="cls-3" d="M2.69,31.48,84.16,4.17l19.43,58a1.47,1.47,0,0,1-.93,1.87L24,90.39a1.48,1.48,0,0,1-1.87-.93Z"/><path class="cls-4" d="M97.81,44.9,53.88,80.38,102.66,64a1.47,1.47,0,0,0,.93-1.87Z"/><path class="cls-3" d="M2.08,34.38a3.7,3.7,0,0,1,2.33-4.69L83,3.36a3.69,3.69,0,0,1,4.68,2.33l8.76,26.1a1.25,1.25,0,0,1-.78,1.57L12.39,61.26a1.25,1.25,0,0,1-1.56-.78Z"/><rect class="cls-4" x="11.41" y="47.35" width="85.92" height="6.26" transform="translate(-13.23 19.9) rotate(-18.53)"/><path class="cls-4" d="M26.37,19.8l.09,2.05a.49.49,0,0,0,.64.45l4.58-1.51a.49.49,0,0,0,.34-.55l-.31-1.85a.49.49,0,0,0-.63-.39l-4.36,1.31A.48.48,0,0,0,26.37,19.8Z"/><path class="cls-4" d="M59.41,8.53l.89,1.8A.5.5,0,0,1,60,11L55.8,12.45a.51.51,0,0,1-.6-.25l-.92-1.79a.49.49,0,0,1,.28-.69l4.25-1.44A.5.5,0,0,1,59.41,8.53Z"/><path class="cls-5" d="M50.61,43.89a.63.63,0,0,1,.4-.8l4.06-1.36a.64.64,0,0,1,.81.4L59.8,53.84a2.78,2.78,0,0,1-5.27,1.76Z"/><rect class="cls-1" x="52.14" y="42.1" width="5.56" height="11.79" rx="0.95" transform="translate(-12.41 19.94) rotate(-18.53)"/><line class="cls-6" x1="54.89" y1="53.72" x2="58.39" y2="52.55"/><line class="cls-6" x1="53.23" y1="48.78" x2="56.73" y2="47.6"/><line class="cls-7" x1="13.93" y1="60.41" x2="50.97" y2="47.99"/><path class="cls-7" d="M58.4,45.62,93.57,34.18"/></g></g></svg>