<svg width="48" height="49" viewBox="0 0 48 49" fill="none" xmlns="http://www.w3.org/2000/svg">
<path d="M41.3471 41.7577C41.891 41.6618 42.2541 41.1431 42.1582 40.5992C42.0623 40.0554 41.5437 39.6922 40.9998 39.7881L41.3471 41.7577ZM7.98499 8.0387L31.6204 3.87114L31.2731 1.90153L7.6377 6.06908L7.98499 8.0387ZM33.9373 5.49346L38.9365 33.8456L40.9061 33.4983L35.9069 5.14616L33.9373 5.49346ZM14.218 43.3881L7.98499 8.0387L6.01538 8.38599L12.2484 43.7354L14.218 43.3881ZM37.3142 36.1625L14.7673 40.1381L15.1146 42.1077L37.6615 38.1321L37.3142 36.1625ZM15.8457 46.2543L41.3471 41.7577L40.9998 39.7881L15.4984 44.2847L15.8457 46.2543ZM14.7673 40.1381C13.0784 40.4359 11.9506 42.0465 12.2484 43.7354L14.218 43.3881C14.1121 42.787 14.5134 42.2137 15.1146 42.1077L14.7673 40.1381ZM38.9365 33.8456C39.1283 34.9333 38.402 35.9707 37.3142 36.1625L37.6615 38.1321C39.8371 37.7485 41.2898 35.6738 40.9061 33.4983L38.9365 33.8456ZM31.6204 3.87114C32.7082 3.67934 33.7455 4.40567 33.9373 5.49346L35.9069 5.14616C35.5233 2.97059 33.4487 1.51791 31.2731 1.90153L31.6204 3.87114ZM12.2484 43.7354C12.5462 45.4243 14.1568 46.5521 15.8457 46.2543L15.4984 44.2847C14.8973 44.3907 14.324 43.9893 14.218 43.3881L12.2484 43.7354ZM7.6377 6.06908C6.54991 6.26089 5.82357 7.2982 6.01538 8.38599L7.98499 8.0387L7.98499 8.0387L7.6377 6.06908Z" fill="#1E6DEB"/>
<ellipse cx="23.2186" cy="19.5683" rx="8" ry="7.99995" transform="rotate(-10 23.2186 19.5683)" fill="#E6EFFF" stroke="#1E6DEB" stroke-width="2"/>
<ellipse cx="23.2185" cy="19.5684" rx="3" ry="7.99995" transform="rotate(-10 23.2185 19.5684)" stroke="#1E6DEB" stroke-width="2"/>
<line x1="15.3402" y1="20.9576" x2="31.0971" y2="18.1792" stroke="#1E6DEB" stroke-width="2"/>
<path d="M20.552 33.2393L30.4 31.5028" stroke="#1E6DEB" stroke-width="2" stroke-linecap="round"/>
</svg>
