<svg width="112" height="113" viewBox="0 0 112 113" fill="none" xmlns="http://www.w3.org/2000/svg">
<g clip-path="url(#clip0_389_29450)">
<path d="M97.8311 69.5672C89.8836 96.6077 54.2826 102.732 32.3876 88.6997C18.0707 79.5241 8.58564 67.1918 11.2068 49.0114C14.6695 24.9948 40.5784 13.8682 62.6577 17.7806C86.1183 21.9377 105.126 44.7484 97.8311 69.5672Z" fill="#DFECFF"/>
<path d="M34.7137 18.7397C37.7711 16.5352 42.1386 17.5949 42.1386 17.5949C42.1386 17.5949 45.9565 15.7991 49.8713 17.846C53.786 19.8929 55.466 20.7138 57.0343 24.072C58.0999 26.3535 58.0444 30.4403 58.0444 30.4403L59.9851 37.4145L59.7921 43.3596L61.774 49.7592L61.0093 54.9178L56.9685 63.5756L39.3269 61.275L25.6639 64.975C25.6639 64.975 17.3335 62.468 17.9071 58.8517C18.2923 56.4227 19.6084 56.2517 19.8223 54.3484C20.051 52.3141 18.3114 52.5295 18.5974 49.851C18.8834 47.1726 22.0295 47.0883 22.5499 44.6039C23.0053 42.4297 20.6047 41.6751 21.5374 39.0037C22.5977 35.9664 24.9138 36.7549 25.6639 34.5301C26.1868 32.979 25.7326 32.4136 25.7995 30.353C25.9738 24.9833 31.6562 20.9442 34.7137 18.7397Z" fill="#2C1400"/>
<path d="M56.6927 46.0159L57.7178 47.7585C58.3127 48.7698 58.2958 50.028 57.6739 51.023L56.6927 52.5929" stroke="#612D10" stroke-width="1.86671" stroke-linecap="round"/>
<path d="M40.072 21.2725C40.072 21.2725 39.7111 23.7524 38.8761 25.0593C37.7698 26.7909 34.6907 28.2482 34.6907 28.2482" stroke="#592D00" stroke-width="1.86671" stroke-linecap="round"/>
<path d="M64.363 81.0344L48.6558 67.5088C44.8139 64.2005 45.1682 58.145 49.3697 55.3073C52.2146 53.3859 55.9884 53.5825 58.6182 55.7892L74.4966 69.1133C77.5063 71.6389 78.1759 76.0051 76.0613 79.3166C73.4979 83.331 67.9723 84.1424 64.363 81.0344Z" fill="#002B72"/>
<path d="M38.026 50.8927L49.7325 51.0824C49.9078 51.0853 50.0802 51.1275 50.237 51.2061C56.3653 54.2773 60.9377 61.0141 62.2936 67.7334C63.0192 71.3296 63.6137 75.2754 63.2887 79.0967C62.9946 82.5541 60.198 85.5636 59.5714 88.8735C58.4693 94.6951 60.5529 99.4539 60.5529 99.4539L26.0133 97.0787L24.8611 73.5785C18.2391 71.5405 17.2477 62.5793 23.264 59.143L37.4502 51.0406C37.6254 50.9405 37.8243 50.8894 38.026 50.8927Z" fill="#002B72"/>
<path d="M29.3155 83.4289L31.05 76.437C31.6881 73.8645 35.0452 73.2171 36.5942 75.3679L41.6297 82.3597C43.1118 84.4177 41.6412 87.2891 39.1051 87.2891H32.3352C30.3135 87.2891 28.8288 85.3911 29.3155 83.4289Z" fill="#001745"/>
<path d="M22.5388 91.2437C21.2406 89.1717 22.7301 86.4807 25.1753 86.4807H94.7615C95.4489 86.4807 96.006 87.0379 96.006 87.7252V98.4603C96.006 99.1476 95.4489 99.7047 94.7616 99.7047H28.5289C28.1003 99.7047 27.7018 99.4842 27.4743 99.121L22.5388 91.2437Z" fill="#D0E4FF"/>
<path d="M30.2959 100.969L51.6885 97.9628C54.3559 97.5881 56.4089 95.4174 56.6346 92.7333C56.9176 89.3683 54.2627 86.4807 50.8858 86.4807H26.9588C21.1714 86.4807 18.5185 93.6898 22.9254 97.4412L25.3967 99.5449C26.7512 100.698 28.5344 101.216 30.2959 100.969Z" fill="#75AFFF"/>
<rect x="51.3745" y="86.4807" width="33.0601" height="13.224" fill="#8EBEFF"/>
<rect x="51.3745" y="86.4807" width="29.7541" height="12.3975" fill="#FBDDB1"/>
<path d="M51.3745 86.4807H77.8226L51.3745 98.0517V86.4807Z" fill="#F7C14E"/>
<path d="M79.6691 92.3052L83.2081 93.5223V99.8888H79.6691V92.3052Z" fill="#FBDDB1"/>
<path d="M51.61 99.3828H83.2083" stroke="#CA7F00" stroke-width="1.86671"/>
<path d="M78.2019 50.3356L76.6267 53.6695C76.3093 54.3414 76.5114 55.1441 77.1093 55.5855L81.0354 58.4843C81.8645 59.0964 83.0487 58.7478 83.414 57.7842L84.9567 53.7147C85.2305 52.9924 84.9328 52.1786 84.2575 51.8035L80.3639 49.6403C79.5777 49.2036 78.5861 49.5225 78.2019 50.3356Z" fill="#D39264"/>
<path d="M85.5267 58.726L76.2429 79.4363C74.541 83.2328 69.8888 84.6673 66.3445 82.4882C63.2483 80.5847 62.1625 76.6041 63.8633 73.3921L74.5202 53.266C74.7485 52.8348 75.2789 52.6643 75.7156 52.8816L85.1065 57.5528C85.5387 57.7678 85.7241 58.2856 85.5267 58.726Z" fill="#002B72"/>
<path d="M68.7584 63.7397L66.2306 68.0371" stroke="#004DC0" stroke-width="1.86671" stroke-linecap="round"/>
<path d="M36.6306 43.718H49.3159V56.4033C49.3159 59.9063 46.4762 62.746 42.9733 62.746C39.4703 62.746 36.6306 59.9063 36.6306 56.4033V43.718Z" fill="#D39264"/>
<path d="M38.3016 56.4198L49.4394 54.1574V49.0012L36.6839 48.1782V55.0976C36.6839 55.9507 37.4656 56.5896 38.3016 56.4198Z" fill="#A35F21"/>
<path d="M53.4451 27.8417C52.8836 25.2563 48.9377 23.5358 48.3392 23.2884C48.2868 23.2668 48.2352 23.2505 48.1801 23.2373C46.2978 22.786 44.7837 23.1587 42.8355 23.2576C41.9467 28.7271 37.5959 30.4805 34.9097 33.8208C34.9097 33.8208 32.1277 33.4296 31.1032 35.6219C30.0786 37.8143 30.306 40.6045 32.4983 42.7969C33.5316 43.8303 34.5699 43.3215 34.5699 43.3215L36.0707 47.3359C36.4673 48.3966 37.2159 49.2892 38.1914 49.8645L42.5542 52.4375C43.7857 53.1637 45.2276 53.4493 46.6429 53.2471L46.9208 53.2074C48.8826 52.9271 50.6042 51.7427 51.6315 50.0481C53.3509 47.2118 55.0392 44.3916 55.2389 40.9958C55.4382 37.6076 53.9401 36.0951 54.0913 34.2194C54.2424 32.3438 53.898 29.9269 53.4451 27.8417Z" fill="#D39364"/>
<path d="M34.2014 40.7239C33.8286 40.3812 32.9266 39.609 33.6767 38.5509C34.4269 37.4929 34.012 36.7984 33.2844 36.6331C32.8417 36.5326 32.3017 36.6444 32.0056 37.4587" stroke="#753C11" stroke-width="1.34913" stroke-linecap="round"/>
<path d="M22.9833 80.3236L21.449 81.4897C19.9185 82.6528 20.4587 85.0757 22.3384 85.4785L23.6272 85.7547C24.8781 86.0227 26.1003 85.1945 26.315 83.9333L26.5605 82.4911C26.9027 80.4807 24.6069 79.0897 22.9833 80.3236Z" fill="#8EBEFF"/>
<path d="M26.9173 44.1926L27.9615 47.0267C28.1793 47.618 28.0719 48.2802 27.6782 48.7723L26.7174 49.9733C26.2402 50.5698 26.1918 51.4026 26.5967 52.0504L26.9173 52.5635" stroke="#612D10" stroke-width="1.86671" stroke-linecap="round"/>
<path d="M47.0469 40.981L49.2354 40.7379C49.8339 40.6714 50.3274 41.2002 50.2197 41.7927L50.1625 42.107C50.0888 42.5125 49.7487 42.8161 49.3374 42.8435L47.4266 42.9709C47.1842 42.987 46.9456 42.9045 46.7651 42.742L46.5445 42.5435C45.9675 42.0241 46.2753 41.0668 47.0469 40.981Z" fill="#A25F20"/>
<path d="M49.0223 35.8215L50.3931 39.2316C50.8048 40.2558 50.561 41.4395 49.7242 42.1596C49.6245 42.2454 49.5282 42.3263 49.4392 42.3986" stroke="#753C11" stroke-width="1.34913" stroke-linecap="round"/>
<path d="M46.8306 42.3441L46.0521 42.0356" stroke="#753C11" stroke-width="1.34913" stroke-linecap="round"/>
<path d="M45.5131 30.7621C45.5131 30.7621 44.0956 30.3031 43.1287 30.2795C41.3975 30.2374 39.1563 31.8539 39.1563 31.8539" stroke="#2C1400" stroke-width="1.66137"/>
<path d="M49.1161 30.9269C49.1161 30.9269 50.7373 30.0362 52.6829 30.6057C53.8178 30.938 54.6038 31.9462 54.6038 31.9462" stroke="#2C1400" stroke-width="1.66137"/>
<path d="M14.5432 85.0033L19.4568 64.11C20.5783 59.3413 26.0144 57.0412 30.218 59.5569C32.8941 61.1584 34.2433 64.2943 33.5659 67.3386L28.9044 88.2895C28.0883 91.9576 24.6419 94.4234 20.9067 94.0116C16.5119 93.5271 13.5311 89.3073 14.5432 85.0033Z" fill="#002B72"/>
<path d="M47.0028 44.6261C48.3009 44.4175 49.6428 44.8736 50.4734 45.2491C50.9364 45.4585 51.0558 46.0219 50.7251 46.4081C49.7422 47.5556 47.6023 49.5921 45.1868 49.0063C42.8392 48.4369 41.951 45.5576 41.6327 43.9266C41.5209 43.3543 42.02 42.8945 42.5862 43.034C43.6023 43.2844 45.0966 43.7403 46.1364 44.4411C46.3892 44.6115 46.7018 44.6745 47.0028 44.6261Z" fill="#6A2D0D"/>
<path d="M45.4856 46.8825C46.176 47.1514 47.3798 46.687 48.1143 46.3425C48.3126 46.2495 48.258 45.9748 48.04 45.9534L45.9309 45.7463C45.902 45.7435 45.8739 45.7351 45.8482 45.7216L44.1427 44.8245C43.9536 44.7251 43.7591 44.9136 43.8638 45.0998C44.2071 45.7103 44.8116 46.62 45.4856 46.8825Z" fill="white"/>
<path d="M55.9026 85.7423C57.2527 86.1546 60.3813 88.3092 62.0922 89.5315C62.8089 90.0436 63.1378 90.9357 62.9456 91.7997L62.2002 95.1513C61.943 96.3077 60.8357 97.0729 59.6668 96.9019L51.0558 95.6422C50.6278 95.5796 50.1957 95.548 49.7627 95.5477L40.5724 95.5417L40.2265 86.4404L45.6608 86.1984C45.6608 86.1984 53.9961 85.1601 55.9026 85.7423Z" fill="#D39364"/>
<path d="M55.0153 95.2102L55.9008 86.9827C55.9758 86.2857 56.7637 85.9171 57.3468 86.3061L61.8412 89.3045C62.6987 89.8766 63.1148 90.9182 62.8875 91.9237L62.1938 94.9928C61.8987 96.2987 60.6234 97.1371 59.3075 96.8904L55.7713 96.2275C55.2924 96.1377 54.9631 95.6947 55.0153 95.2102Z" fill="#BA7A3E"/>
<path d="M44.3793 97.1521L21.037 95.5542C16.5106 95.2444 13.3227 90.9766 14.3098 86.5484C15.1682 82.6977 18.8928 80.1945 22.7825 80.8543L45.3791 84.6873C45.8365 84.7649 46.1598 85.1776 46.1257 85.6402L45.3377 96.321C45.3013 96.8145 44.8731 97.1859 44.3793 97.1521Z" fill="#002B72"/>
<path d="M22.3008 81.5781L45.8684 84.9447" stroke="#004DC0" stroke-width="1.86671" stroke-linecap="round"/>
<path d="M49.1779 73.3635L38.9745 58.8857C42.7504 59.5693 45.2154 59.8544 49.1779 57.5068V73.3635Z" fill="#F6A5AB"/>
<path d="M42.2628 58.3735C41.7514 58.3088 41.2844 58.6709 41.2197 59.1823C41.1551 59.6937 41.5172 60.1607 42.0286 60.2254L42.2628 58.3735ZM45.5928 59.2994L45.4062 58.3849L45.5928 59.2994ZM49.3133 58.5374C49.7301 58.2341 49.8221 57.6503 49.5188 57.2335C49.2155 56.8167 48.6317 56.7247 48.2149 57.028L49.3133 58.5374ZM42.1457 59.2994C42.0286 60.2254 42.0287 60.2254 42.0288 60.2254C42.0288 60.2254 42.029 60.2255 42.0291 60.2255C42.0292 60.2255 42.0295 60.2255 42.0297 60.2256C42.0302 60.2256 42.0309 60.2257 42.0316 60.2258C42.0331 60.226 42.0352 60.2262 42.0377 60.2265C42.0428 60.2272 42.0499 60.228 42.0589 60.2291C42.077 60.2313 42.1027 60.2343 42.1354 60.238C42.2008 60.2453 42.2943 60.2554 42.4101 60.2664C42.6411 60.2885 42.9633 60.315 43.3296 60.3326C44.0398 60.3669 44.9994 60.3731 45.7794 60.2139L45.4062 58.3849C44.8673 58.4949 44.1033 58.5011 43.4197 58.4681C43.0891 58.4521 42.7968 58.4282 42.5876 58.4082C42.4833 58.3982 42.4002 58.3893 42.3441 58.383C42.316 58.3798 42.2947 58.3773 42.281 58.3757C42.2741 58.3748 42.2691 58.3742 42.266 58.3738C42.2645 58.3737 42.2634 58.3735 42.2629 58.3735C42.2627 58.3734 42.2625 58.3734 42.2625 58.3734C42.2625 58.3734 42.2625 58.3734 42.2626 58.3734C42.2626 58.3734 42.2627 58.3734 42.2627 58.3734C42.2628 58.3734 42.2628 58.3735 42.1457 59.2994ZM45.7794 60.2139C46.6777 60.0306 47.571 59.5951 48.2035 59.2384C48.528 59.0554 48.8014 58.883 48.9945 58.7558C49.0914 58.692 49.1687 58.6391 49.2229 58.6014C49.25 58.5825 49.2714 58.5674 49.2866 58.5566C49.2942 58.5512 49.3003 58.5468 49.3048 58.5436C49.307 58.542 49.3088 58.5407 49.3103 58.5396C49.311 58.5391 49.3116 58.5387 49.3121 58.5383C49.3124 58.5381 49.3126 58.5379 49.3128 58.5378C49.3129 58.5377 49.313 58.5376 49.3131 58.5376C49.3132 58.5375 49.3133 58.5374 48.7641 57.7827C48.2149 57.028 48.2151 57.028 48.2152 57.0279C48.2152 57.0279 48.2153 57.0278 48.2153 57.0278C48.2154 57.0277 48.2155 57.0276 48.2156 57.0276C48.2157 57.0275 48.2157 57.0275 48.2156 57.0276C48.2154 57.0277 48.2148 57.0281 48.2139 57.0288C48.212 57.0302 48.2085 57.0326 48.2036 57.0361C48.1938 57.0432 48.178 57.0543 48.1568 57.0691C48.1143 57.0987 48.0501 57.1426 47.9676 57.1969C47.8022 57.3059 47.566 57.4548 47.2865 57.6125C46.711 57.937 46.0187 58.2599 45.4062 58.3849L45.7794 60.2139Z" fill="#9B0022"/>
<path d="M42.9366 64.9309L36.9511 51.7968C36.7241 51.2986 36.1189 51.1019 35.6424 51.3714L29.2921 54.9624C28.6853 55.3055 28.6551 56.1685 29.2364 56.5532L42.4818 65.3194C42.7425 65.4919 43.0662 65.2153 42.9366 64.9309Z" fill="#002B72"/>
<path d="M62.9664 80.6714C64.6733 74.545 64.3871 70.897 61.0729 64.4011" stroke="#004DC0" stroke-width="1.86671" stroke-linecap="round"/>
<path d="M49.235 83.8083L48.3501 77.2243L31.5283 61.092L34.1481 53.6462" stroke="#004DC0" stroke-width="1.86671" stroke-linecap="round" stroke-linejoin="round"/>
<path d="M51.1311 78.1209L59.1054 59.5755L54.1416 53.095" stroke="#004DC0" stroke-width="1.86671" stroke-linecap="round" stroke-linejoin="round"/>
<line x1="76.9547" y1="33.3772" x2="80.7619" y2="41.9203" stroke="#002B72" stroke-width="1.86671"/>
<rect x="68.1928" y="16.1174" width="29.5071" height="19.5795" transform="rotate(-24.0198 68.1928 16.1174)" fill="white"/>
<path d="M89.1891 20.6282C89.1065 20.5336 89.0888 20.3986 89.1444 20.2859L90.3601 17.8221C90.4648 17.6101 90.304 17.3634 90.0678 17.3736L90.0391 17.3748C89.8799 17.3816 89.7413 17.267 89.718 17.1093L89.5599 16.036C89.526 15.8066 89.2622 15.6934 89.0727 15.8271L88.4096 16.2949C88.285 16.3828 88.115 16.3674 88.0082 16.2586L88 16.2502C87.8383 16.0855 87.56 16.1479 87.4841 16.3658L87.2516 17.0336C87.1512 17.3221 86.7385 17.3081 86.6577 17.0135L86.2021 15.3507C86.135 15.1056 85.8182 15.04 85.6593 15.2384L85.598 15.3148C85.4944 15.4441 85.3075 15.47 85.1723 15.3741C84.8893 15.1732 84.4342 14.8514 84.0992 14.6146C83.9063 14.4782 83.6378 14.5982 83.6108 14.8329C83.5639 15.2407 83.5002 15.7951 83.461 16.1414C83.4425 16.304 83.3016 16.4249 83.1381 16.4184L82.988 16.4125C82.7364 16.4025 82.5778 16.6797 82.7138 16.8915L83.6525 18.3527C83.8176 18.6098 83.5521 18.926 83.2704 18.8078L82.6184 18.5342C82.4056 18.4449 82.1731 18.6102 82.1875 18.8405L82.1882 18.8522C82.1977 19.0044 82.0955 19.1411 81.9468 19.175L81.1556 19.3553C80.9295 19.4068 80.8372 19.6787 80.9852 19.8572L81.6776 20.6925C81.7793 20.8152 81.7718 20.9949 81.6603 21.1087L81.6402 21.1293C81.4748 21.2981 81.5507 21.5825 81.7783 21.6465L84.4233 22.3898C84.5442 22.4238 84.6329 22.5272 84.648 22.652L84.6769 22.8911C84.7038 23.1135 84.9499 23.2354 85.1432 23.1221L86.5218 22.3137C86.6818 22.2198 86.8878 22.286 86.9633 22.4554L87.5371 23.743C87.6025 23.8898 87.7745 23.9557 87.9213 23.8903C88.0681 23.8249 88.1341 23.6529 88.0687 23.5061L87.4949 22.2185C87.4194 22.0491 87.5079 21.8517 87.6847 21.7954L89.2076 21.3108C89.421 21.2428 89.4949 20.9784 89.3475 20.8096L89.1891 20.6282Z" fill="#F35C6C"/>
<rect x="68.1928" y="16.1174" width="8.27302" height="19.5795" transform="rotate(-24.0198 68.1928 16.1174)" fill="#F35C6C"/>
<rect x="88.0918" y="7.24951" width="7.72148" height="19.5795" transform="rotate(-24.0198 88.0918 7.24951)" fill="#F35C6C"/>
<path d="M76.7712 51.3487L77.6676 52.5853C78.1253 53.2167 78.7543 53.7037 79.4801 53.9887L81.9678 54.9655C83.3987 55.5274 84.9524 54.4949 84.9885 52.958L87.8391 45.4096L80.7771 38.2916C80.1958 36.9516 79.7129 36.5547 78.591 36.5035C78.591 36.5035 75.0408 43.514 74.8486 44.6531C74.6564 45.7922 76.7712 51.3487 76.7712 51.3487Z" fill="#D39264"/>
<path d="M80.615 49.9896C80.0595 49.2375 79.6981 48.1672 79.4638 47.1389C79.1766 45.8787 80.5654 45.097 81.6151 45.8511L85.4377 48.5975C85.9891 48.9936 86.2199 49.7016 86.0079 50.3465L85.6446 51.4518C85.3628 52.3092 84.4146 52.742 83.6208 52.3123C82.6001 51.7599 81.3131 50.935 80.615 49.9896Z" fill="#BA7A3E"/>
<line x1="82.0272" y1="46.5363" x2="85.0112" y2="53.2323" stroke="#002B72" stroke-width="1.86671"/>
<path d="M80.5255 38.9054L79.6451 42.3989C79.3853 43.4297 79.7317 44.5187 80.5392 45.2101L85.5728 49.52" stroke="#753C11" stroke-width="1.86671" stroke-linecap="round"/>
<path d="M39.8529 33.8325L40.9992 34.1376C40.9992 34.1376 42.3228 33.3328 43.3869 33.2386C44.4509 33.1445 46.1496 34.1582 46.1496 34.1582" stroke="#200C00" stroke-width="1.24447"/>
<circle cx="43.4497" cy="34.5766" r="0.622236" transform="rotate(-10.7708 43.4497 34.5766)" fill="#200C00" stroke="#200C00" stroke-width="1.14316"/>
<path d="M54.4399 33.9701L53.497 34.2612C53.497 34.2612 52.5532 33.3016 51.6094 33.1533C50.6657 33.0051 49.4402 34.0669 49.4402 34.0669" stroke="#200C00" stroke-width="1.24447"/>
<mask id="path-54-inside-1_389_29450" fill="white">
<ellipse rx="1.07565" ry="1.24352" transform="matrix(-0.96048 -0.278348 -0.278348 0.96048 51.5142 34.5952)"/>
</mask>
<ellipse rx="1.07565" ry="1.24352" transform="matrix(-0.96048 -0.278348 -0.278348 0.96048 51.5142 34.5952)" fill="#200C00"/>
<path d="M51.6764 34.6422C51.6611 34.6948 51.6745 34.7187 51.6696 34.708C51.6666 34.7015 51.6559 34.6816 51.6294 34.6575C51.6014 34.6321 51.5618 34.608 51.5145 34.5943L50.8217 36.9848C49.4341 36.5827 48.9522 35.1005 49.2858 33.9494L51.6764 34.6422ZM51.5145 34.5943C51.4672 34.5806 51.4208 34.5798 51.3836 34.5863C51.3483 34.5924 51.3286 34.6036 51.3226 34.6075C51.3128 34.6138 51.3368 34.6008 51.3521 34.5482L53.7427 35.241C53.409 36.3921 52.2093 37.387 50.8217 36.9848L51.5145 34.5943ZM51.3521 34.5482C51.3673 34.4955 51.354 34.4717 51.3589 34.4823C51.3619 34.4888 51.3725 34.5088 51.3991 34.5328C51.427 34.5582 51.4667 34.5824 51.514 34.5961L52.2068 32.2055C53.5943 32.6076 54.0763 34.0898 53.7427 35.241L51.3521 34.5482ZM51.514 34.5961C51.5612 34.6098 51.6077 34.6106 51.6449 34.6041C51.6802 34.5979 51.6998 34.5867 51.7058 34.5829C51.7157 34.5765 51.6916 34.5895 51.6764 34.6422L49.2858 33.9494C49.6194 32.7982 50.8192 31.8034 52.2068 32.2055L51.514 34.5961Z" fill="#200C00" mask="url(#path-54-inside-1_389_29450)"/>
</g>
<defs>
<clipPath id="clip0_389_29450">
<rect width="112" height="112" fill="white" transform="translate(0 0.00488281)"/>
</clipPath>
</defs>
</svg>
