<svg width="122" height="112" viewBox="0 0 122 112" fill="none" xmlns="http://www.w3.org/2000/svg">
<path d="M110.789 69.2163C116.786 45.1728 100.087 19.5063 68.6761 11.6715C37.2647 3.83667 17.4049 17.9522 11.024 43.5347C4.64304 69.1171 15.5473 90.906 46.9587 98.7408C78.3701 106.576 104.792 93.2598 110.789 69.2163Z" fill="#E6EFFF"/>
<path d="M51.4483 6.21687C54.7656 3.62278 59.6559 4.65628 59.6559 4.65628C59.6559 4.65628 62.9732 1.84601 67.3963 4.00775C71.8193 6.16949 74.6693 10.5403 74.6693 10.5403C74.6693 10.5403 78.726 12.8116 79.0924 15.08C79.8855 19.9896 79.1174 18.9238 81.1077 22.8623C83.0981 26.8008 80.1493 27.9915 81.1077 31.2457C81.7066 33.2787 83.2343 33.9497 83.7616 36.0015C84.5028 38.8859 82.3186 40.6442 82.877 43.5676C83.3099 45.8343 84.8995 46.7013 85.3097 48.972C85.61 50.6347 85.7612 53.96 85.0635 55.5046C83.8057 58.289 77.7905 55.8895 77.7905 55.8895L58.1079 53.944L41.0791 60.8616C41.0791 60.8616 33.7166 56.0914 34.2234 51.9984C34.5637 49.2492 36.0197 49.0085 36.1887 46.8576C36.3694 44.5586 34.4445 44.8647 34.6657 41.8382C34.8868 38.8118 38.379 38.6018 38.8675 35.7854C39.295 33.3205 36.6008 32.5585 37.5406 29.5163C38.6091 26.0575 41.2106 26.8607 41.9637 24.3281C42.4887 22.5624 41.9637 21.9424 41.9637 19.6197C41.9637 13.5668 48.131 8.81096 51.4483 6.21687Z" fill="#00307A"/>
<path d="M76.5505 37.4326L77.647 39.6919C78.0912 40.6074 78.0782 41.6787 77.6119 42.5831L76.5505 44.6415" stroke="#002560" stroke-width="1.84615" stroke-linecap="round"/>
<path d="M57.5395 9.16644C57.5395 9.16644 57.374 11.7966 55.8878 14.0903C53.8071 17.3014 49.6028 19.8673 49.6028 19.8673" stroke="#1E6DEB" stroke-width="1.84615" stroke-linecap="round"/>
<path d="M38.534 55.5091C41.6153 52.4543 49.5171 49.1465 49.5171 49.1465L36.1931 99.6087H24.3495C24.3495 99.6087 22.1791 93.6308 24.3496 85.5671C26.0974 79.0735 35.4528 58.5639 38.534 55.5091Z" fill="#FC789B"/>
<path d="M39.605 99.6083H29.4679C28.13 99.6083 26.9834 98.6517 26.7435 97.3355L25.1873 88.7949L39.605 92.8772V99.6083Z" fill="#FA3E70"/>
<path d="M85.7278 61.8613L89.1661 92.2288C89.1661 92.2288 88.0798 95.7714 76.3476 98.4283C64.6153 101.085 41.5853 98.4283 41.5853 98.4283L39.8472 68.7595C36.6535 59.921 40.7628 50.1095 49.3019 46.1849L54.3459 43.8667C54.5273 43.7834 54.7245 43.7402 54.9241 43.7402H67.9803C68.1963 43.7402 68.4093 43.7908 68.6023 43.8878L75.6759 47.444C81.2459 50.2443 85.0264 55.6666 85.7278 61.8613Z" fill="#DEAAFB"/>
<path d="M70.8967 62.8475L70.1727 63.3091C66.9194 65.3828 67.4951 70.2957 71.1396 71.5611L71.9826 71.8538C75.2751 72.997 78.5982 70.218 78.0555 66.7751L77.9366 66.0209C77.4188 62.7356 73.7013 61.0599 70.8967 62.8475Z" fill="#C26FEE"/>
<path d="M46.2654 69.1729C45.6221 62.5041 44.471 52.1144 44.1792 49.4964C44.1375 49.122 44.3279 48.7646 44.6595 48.5859L47.4706 47.0712C48.0359 46.7666 48.7318 47.1179 48.8223 47.7536L51.5731 67.0694L54.0228 87.8945H46.2654C46.2654 87.8945 46.9673 76.4484 46.2654 69.1729Z" fill="#FC789B"/>
<path d="M45.9501 71.6751L45.1943 63.3696C45.0853 62.1722 45.7614 61.0414 46.8677 60.5705L50.4181 59.0596L45.9501 71.6751Z" fill="#FA3E70"/>
<path d="M54.9238 34.7295H69.3416V46.4439C69.3416 50.4253 66.1141 53.6528 62.1327 53.6528C58.1514 53.6528 54.9238 50.4253 54.9238 46.4439V34.7295Z" fill="#D98A45"/>
<path d="M56.0348 48.9157L68.6064 46.3027C69.0346 46.2137 69.3416 45.8363 69.3416 45.3989V41.0503C69.3416 40.5641 68.9645 40.1613 68.4793 40.1293L55.9077 39.2993C55.3751 39.2642 54.9238 39.6867 54.9238 40.2204V48.0119C54.9238 48.5973 55.4617 49.0348 56.0348 48.9157Z" fill="#B96E31"/>
<path d="M74.6079 86.9921C76.1321 68.4713 75.5543 56.8571 73.4651 47.6611C73.2844 46.8653 74.1375 46.2141 74.8479 46.6155L76.9246 47.789C77.1672 47.926 77.3358 48.1706 77.3817 48.4454C80.3788 66.383 81.4035 75.1877 78.139 86.9921H74.6079Z" fill="#FC789B"/>
<path d="M75.6497 70.382V62.8429C75.6497 62.2757 76.1564 61.8427 76.7166 61.9311L78.9493 62.2834C79.3808 62.3515 79.7054 62.7127 79.7273 63.1489L80.1552 71.6749L75.6497 70.382Z" fill="#FA3E70"/>
<path d="M73.4743 24.0535C73.6394 21.9694 72.7328 18.0376 71.7915 15.8608C70.5243 12.9306 64.3774 12.819 60.8092 13.3492C58.6972 18.791 56.1628 20.4654 52.5155 23.6106C52.5155 23.6106 49.4757 23.1758 48.3563 25.6118C47.2368 28.0478 47.4852 31.1481 49.8806 33.5841C51.0097 34.7323 52.1442 34.1669 52.1442 34.1669L53.8358 38.7682C54.2358 39.856 54.9958 40.7742 55.9898 41.3703L60.9727 44.3586C62.2495 45.1243 63.7516 45.4257 65.2249 45.2116L65.8286 45.1239C67.8518 44.83 69.6202 43.5975 70.6671 41.8414L70.7202 41.7524C72.6216 38.5633 74.5074 35.4004 74.7283 31.5829C74.946 27.8182 73.3092 26.1376 73.4743 24.0535Z" fill="#DE9952"/>
<path d="M64.0132 23.9988C64.0132 23.9988 61.0401 22.7766 58.5579 24.9806" stroke="#00307A" stroke-width="1.38462" stroke-miterlimit="10" stroke-linecap="round"/>
<path d="M62.2834 26.1377C61.6655 26.5458 60.8338 26.3757 60.4257 25.7578C60.0176 25.1399 60.1876 24.3082 60.8055 23.9001C61.4234 23.492 62.2552 23.662 62.6633 24.2799C63.0714 24.8978 62.9013 25.7296 62.2834 26.1377Z" fill="#00307A"/>
<path d="M69.1649 23.7613C69.1649 23.7613 71.5623 22.3807 73.3389 23.898" stroke="#00307A" stroke-width="1.38462" stroke-miterlimit="10" stroke-linecap="round"/>
<path d="M71.7808 25.7567C71.195 26.0463 70.4853 25.8061 70.1957 25.2203C69.9061 24.6344 70.1463 23.9248 70.7321 23.6352C71.3179 23.3456 72.0276 23.5857 72.3172 24.1716C72.6068 24.7574 72.3666 25.4671 71.7808 25.7567Z" fill="#00307A"/>
<path d="M51.7783 31.123C51.364 30.7419 50.361 29.8833 51.1951 28.707C52.0291 27.5307 51.5678 26.7585 50.7588 26.5748C50.2666 26.463 49.6663 26.5872 49.3371 27.4927" stroke="#98511B" stroke-width="1.5" stroke-linecap="round"/>
<path d="M46.2773 67.7002L35.8159 99.4831L73.6781 100.45C74.0791 100.46 74.4408 100.21 74.5731 99.8318L81.846 79.01L46.2773 67.7002Z" fill="#1E6DEB"/>
<path d="M43.7171 75.8564L36.4068 97.8944C36.1133 98.7792 36.7604 99.6954 37.6924 99.7147L71.6848 100.418C72.5248 100.436 72.9494 99.413 72.3441 98.8303L47.508 74.9204C46.2848 73.7429 44.2517 74.2449 43.7171 75.8564Z" fill="#034FCA"/>
<path d="M46.7354 66.7951L46.8545 66.3761C47.2625 64.9395 48.7362 64.0853 50.1856 64.4452L81.0369 72.1054C82.3234 72.4249 83.077 73.7598 82.6857 75.0263L82.2227 76.5251C81.8597 77.7002 80.6388 78.3842 79.4471 78.08L48.7144 70.235C47.2043 69.8495 46.3096 68.2943 46.7354 66.7951Z" fill="white"/>
<path d="M83.4064 72.8584L50.3777 64.3725C49.1456 64.056 47.8897 64.7962 47.5699 66.0274L47.3117 67.0213C46.994 68.2443 47.7189 69.4954 48.938 69.8279L81.187 78.623" stroke="#1E6DEB" stroke-width="1.84615" stroke-linecap="round" stroke-linejoin="round"/>
<path d="M74.9005 85.3014C76.5937 85.7791 81.2133 88.6469 83.633 90.1926C84.5315 90.7666 84.9025 91.8852 84.541 92.8881L83.047 97.0325C82.6677 98.0847 81.5885 98.7134 80.4862 98.5245L68.9387 96.545C68.4254 96.457 67.9055 96.4126 67.3847 96.4123L56.0977 96.4055L55.6733 86.0925L62.3387 85.8183C62.3387 85.8183 72.5622 84.6418 74.9005 85.3014Z" fill="#DE9952"/>
<path d="M84.2197 92.8933L76.985 89.3054" stroke="#98511B" stroke-width="1.5" stroke-linecap="round"/>
<path d="M83.2367 95.456L76.5227 92.384" stroke="#98511B" stroke-width="1.5" stroke-linecap="round"/>
<path d="M81.9224 97.4369L75.2645 94.9296" stroke="#98511B" stroke-width="1.5" stroke-linecap="round"/>
<path d="M33.4872 57.5817C36.4225 52.8993 44.1237 49.1613 44.1237 49.1613C44.1237 49.1613 45.8013 61.7682 45.7712 66.4268C45.7411 71.0854 41.0952 82.1437 41.0952 82.1437L58.3331 85.1263C58.8136 85.2095 59.1465 85.652 59.0933 86.1367L57.8757 97.2177C57.822 97.7067 57.3943 98.0676 56.9033 98.0383L30.5827 96.4702C24.3947 96.1016 20.3263 89.8689 22.5372 84.0776C26.4078 73.9385 31.701 60.431 33.4872 57.5817Z" fill="#DEAAFB"/>
<path d="M39.5141 75.6833L37.1816 77.3845C35.6173 78.5254 36.0687 80.9693 37.9373 81.4762L39.5979 81.9266C40.7634 82.2427 41.9756 81.6068 42.3779 80.4681L42.6253 79.7679L43.0874 78.2004C43.7111 76.0849 41.296 74.3837 39.5141 75.6833Z" fill="#C26FEE"/>
<path d="M34.1982 80.6846L44.1105 82.4868" stroke="#68208D" stroke-width="1.84615" stroke-linecap="round"/>
<path d="M42.9091 34.7295L44.3561 37.535C44.742 38.2832 44.5729 39.1977 43.9449 39.7584L42.7706 40.8069C42.0154 41.4812 41.9441 42.6378 42.6108 43.3997L42.9091 43.7406" stroke="#002560" stroke-width="1.84615" stroke-linecap="round"/>
<path d="M65.8901 31.4288L68.5963 31.1281C69.2105 31.0598 69.717 31.6026 69.6064 32.2106L69.5137 32.7207C69.438 33.1369 69.0891 33.4484 68.6669 33.4766L66.4502 33.6244C66.2015 33.6409 65.9566 33.5562 65.7713 33.3894L65.3745 33.0323C64.7822 32.4993 65.0982 31.5168 65.8901 31.4288Z" fill="#D37522"/>
<path d="M68.2566 25.6729L69.8389 29.6092C70.2615 30.6604 70.0089 31.8721 69.1552 32.617C69.0024 32.7504 68.8539 32.8767 68.7201 32.9853" stroke="#98511B" stroke-width="1.5" stroke-linecap="round"/>
<path d="M65.8197 32.924L64.9541 32.5811" stroke="#98511B" stroke-width="1.5" stroke-linecap="round"/>
<path d="M63.5174 20.698C63.5174 20.698 62.0213 20.0202 61.0153 19.9407C59.2139 19.7983 56.9656 21.8233 56.9656 21.8233" stroke="#00307A" stroke-width="1.38462" stroke-linecap="round"/>
<path d="M69.1635 20.5853C69.1635 20.5853 70.7249 20.0052 71.6718 20.2824C72.3043 20.4675 73.1097 21.1659 73.1097 21.1659" stroke="#00307A" stroke-width="1.38462" stroke-linecap="round"/>
<path d="M65.9703 35.4664C67.4645 35.2113 69.0174 35.7581 69.9424 36.1852C70.4159 36.4038 70.5385 36.9818 70.2016 37.3802C69.1334 38.6433 66.7211 40.9912 63.9925 40.3294C61.3362 39.6852 60.3605 36.3811 60.0228 34.5869C59.9121 33.9987 60.4247 33.5257 61.0064 33.6663C62.1473 33.942 63.893 34.4626 65.0827 35.2772C65.3409 35.454 65.6618 35.519 65.9703 35.4664Z" fill="#874912"/>
<path d="M64.3241 37.9688C65.1091 38.2745 66.4911 37.7275 67.3014 37.3425C67.5045 37.246 67.4478 36.9636 67.2241 36.9416L64.8154 36.7052C64.7857 36.7023 64.7569 36.6937 64.7305 36.6798L62.7818 35.6548C62.5877 35.5527 62.3875 35.7466 62.4939 35.9383C62.8703 36.6163 63.5567 37.6699 64.3241 37.9688Z" fill="white"/>
</svg>
