<?xml version="1.0" encoding="utf-8"?>
<!-- Generator: Adobe Illustrator 25.4.1, SVG Export Plug-In . SVG Version: 6.00 Build 0)  -->
<svg version="1.1" id="Capa_1" xmlns="http://www.w3.org/2000/svg" xmlns:xlink="http://www.w3.org/1999/xlink" x="0px" y="0px"
	 viewBox="0 0 24 24" style="enable-background:new 0 0 24 24;" xml:space="preserve">
<style type="text/css">
	.st0{fill:#FFFFFF;}
</style>
<path class="st0" d="M19.7,3H4.3C3.6,3,3,3.6,3,4.3v15.4C3,20.4,3.6,21,4.3,21h15.4c0.7,0,1.3-0.6,1.3-1.3V4.3C21,3.6,20.4,3,19.7,3
	z M8.4,18.4H5.8V9.8h2.7L8.4,18.4L8.4,18.4z M7.1,8.7C6.3,8.7,5.6,8,5.6,7.1s0.7-1.5,1.5-1.5c0.9,0,1.5,0.7,1.5,1.5
	C8.7,8,8,8.7,7.1,8.7z M18.4,18.4h-2.7v-4.2c0-1,0-2.3-1.4-2.3c-1.4,0-1.6,1.1-1.6,2.2v4.2h-2.7V9.8h2.6V11h0
	c0.4-0.7,1.2-1.4,2.5-1.4c2.7,0,3.2,1.8,3.2,4.1V18.4z"/>
</svg>
