<svg width="48" height="49" viewBox="0 0 48 49" fill="none" xmlns="http://www.w3.org/2000/svg">
<path d="M20 41.0002C24 42.0002 42 40.0002 43.5 23.5002C44.6326 11.0416 29.5 7.26172 29.5 7.26172C29.5 7.26172 22.5 33.0002 20 41.0002Z" fill="#E6EFFF"/>
<path d="M23.4979 6.5C12.1778 6.5 3.00006 14.2904 3.00006 23.8769C3.03392 27.831 4.57154 31.6299 7.31121 34.5282C7.07175 36.1892 6.48816 37.7844 5.59645 39.2154C5.38823 39.5531 5.27808 39.9404 5.27792 40.3351C5.27776 40.7299 5.3876 41.1172 5.59554 41.4551C5.80348 41.793 6.1016 42.0686 6.45763 42.2521C6.81365 42.4356 7.21402 42.5199 7.61537 42.496C9.87779 42.3224 12.1039 41.8358 14.2276 41.0505C14.9211 40.8023 15.6352 40.5138 16.3699 40.1849C16.3699 40.1849 20.9764 41.2582 23.4979 41.2582C34.8223 41.2582 44.0001 33.4678 44.0001 23.8769C44.0001 14.2861 34.8223 6.5 23.4979 6.5Z" stroke="#1E6DEB" stroke-width="2" stroke-linecap="round" stroke-linejoin="round"/>
<path d="M13.0001 18.5H33.0001" stroke="#1E6DEB" stroke-width="2" stroke-linecap="round" stroke-linejoin="round"/>
<path d="M13.0001 24.5H33.0001" stroke="#1E6DEB" stroke-width="2" stroke-linecap="round" stroke-linejoin="round"/>
<path d="M13.0001 30.5H25.0001" stroke="#1E6DEB" stroke-width="2" stroke-linecap="round" stroke-linejoin="round"/>
</svg>
