<svg xmlns="http://www.w3.org/2000/svg" viewBox="0 0 78.72 94.46"><defs><style>.cls-1{fill:#e6efff;}.cls-2{fill:#468cfb;}.cls-3,.cls-5,.cls-6,.cls-9{fill:none;}.cls-3{stroke:#468cfb;}.cls-3,.cls-6{stroke-width:1.79px;}.cls-4{fill:#85b3ff;}.cls-5,.cls-6{stroke:#85b3ff;}.cls-5{stroke-width:1.79px;}.cls-7{fill:#ffcc60;}.cls-8{fill:#fd9fb8;}.cls-9{stroke:#1e6deb;stroke-linecap:round;stroke-width:1.87px;}</style></defs><g id="Capa_2" data-name="Capa 2"><g id="Capa_1-2" data-name="Capa 1"><path class="cls-1" d="M29,88.73C7.66,85.48-1.53,64.94.21,43.08,1.6,25.51,14.5,12.91,31.18,8.19,51.82,2.34,73,21.38,77.42,42.78,82.6,67.52,53.63,92.48,29,88.73Z"/><path class="cls-2" d="M64.85,74.1,19.94,83l1.92,6.89,4.82-.56,36.69-11L66,76.17Z"/><path class="cls-2" d="M2.93,25.94,46.16,13l20.5,68.35L23.19,93.25Z"/><path class="cls-3" d="M1.76,21a3.58,3.58,0,0,1,2.36-4.38l47-14.95A3.58,3.58,0,0,1,55.6,4L76.73,74.47a3.58,3.58,0,0,1-2.39,4.46L26,93.42A3.58,3.58,0,0,1,21.56,91Z"/><path class="cls-3" d="M2.93,22.93,45.65,10.12"/><path class="cls-4" d="M56.73,5.67,4.63,23,24.54,89.56l3.66,2.19L76.14,76.84l1.42-3.19Z"/><path class="cls-4" d="M4.74,23.17,57.66,7.32,56.23,1.58h-5l-45,13.5L2.87,18.51Z"/><rect class="cls-5" x="12.33" y="6.41" width="56.15" height="79.41" rx="3.57" transform="translate(-11.55 13.55) rotate(-16.7)"/><path class="cls-6" d="M26.7,73.85H77.55"/><path class="cls-6" d="M4.64,21.22,57.05,5.5"/><rect class="cls-1" x="18.14" y="53.98" width="10.45" height="8.01" rx="1.87" transform="translate(-15.68 9.16) rotate(-16.7)"/><rect class="cls-1" x="30.65" y="50.22" width="10.45" height="8.01" rx="1.87" transform="translate(-14.07 12.6) rotate(-16.7)"/><rect class="cls-1" x="43.17" y="46.47" width="10.45" height="8.01" rx="1.87" transform="translate(-12.46 16.04) rotate(-16.7)"/><rect class="cls-1" x="55.68" y="42.72" width="10.45" height="8.01" rx="1.87" transform="translate(-10.86 19.47) rotate(-16.7)"/><rect class="cls-1" x="14.68" y="42.47" width="10.45" height="8.01" rx="1.87" transform="translate(-12.52 7.68) rotate(-16.7)"/><rect class="cls-1" x="27.2" y="38.72" width="10.45" height="8.01" rx="1.87" transform="matrix(0.96, -0.29, 0.29, 0.96, -10.91, 11.12)"/><rect class="cls-7" x="39.44" y="33.09" width="23.52" height="8.01" rx="1.87" transform="matrix(0.96, -0.29, 0.29, 0.96, -8.5, 16.28)"/><rect class="cls-1" x="21.59" y="65.49" width="10.45" height="8.01" rx="1.87" transform="translate(-18.84 10.64) rotate(-16.7)"/><rect class="cls-1" x="34.1" y="61.73" width="10.45" height="8.01" rx="1.87" transform="translate(-17.23 14.07) rotate(-16.7)"/><rect class="cls-1" x="46.62" y="57.97" width="10.45" height="8.01" rx="1.87" transform="translate(-15.62 17.51) rotate(-16.7)"/><rect class="cls-1" x="59.13" y="54.22" width="10.45" height="8.01" rx="1.87" transform="translate(-14.02 20.95) rotate(-16.7)"/><rect class="cls-1" x="25.04" y="76.99" width="10.45" height="8.01" rx="1.87" transform="translate(-22 12.11) rotate(-16.7)"/><rect class="cls-1" x="37.55" y="73.24" width="10.45" height="8.01" rx="1.87" transform="translate(-20.39 15.55) rotate(-16.7)"/><rect class="cls-1" x="50.07" y="69.48" width="10.45" height="8.01" rx="1.87" transform="translate(-18.78 18.99) rotate(-16.7)"/><rect class="cls-8" x="62.59" y="65.73" width="10.45" height="8.01" rx="1.87" transform="translate(-17.18 22.43) rotate(-16.7)"/><rect class="cls-1" x="8.06" y="14.97" width="50.38" height="15.12" rx="1.87" transform="translate(-5.07 10.51) rotate(-16.7)"/><path class="cls-9" d="M13.68,36.19l44.05-13c.5-.16,2-1,1.5-2.5-1-3-2.34-7.67-3.51-10.51"/></g></g></svg>