<?xml version="1.0" encoding="utf-8"?>
<!-- Generator: Adobe Illustrator 25.4.1, SVG Export Plug-In . SVG Version: 6.00 Build 0)  -->
<svg version="1.1" id="Capa_1" xmlns="http://www.w3.org/2000/svg" xmlns:xlink="http://www.w3.org/1999/xlink" x="0px" y="0px"
	 viewBox="0 0 75 11.8" style="enable-background:new 0 0 75 11.8;" xml:space="preserve">
<style type="text/css">
	.st0{fill-rule:evenodd;clip-rule:evenodd;fill:#FFCC60;}
</style>
<desc>Created with Sketch.</desc>
<g>
	<path class="st0" d="M5.4,0.6c0.3-0.8,1.5-0.8,1.8,0l1,2.4c0.1,0.3,0.4,0.5,0.7,0.6l2.5,0.2c0.9,0.1,1.2,1.1,0.6,1.7l-1.9,1.7
		C9.8,7.4,9.7,7.7,9.8,8.1l0.6,2.5c0.2,0.8-0.7,1.5-1.5,1l-2.1-1.3c-0.3-0.2-0.6-0.2-0.9,0l-2.1,1.3c-0.7,0.5-1.7-0.2-1.5-1l0.6-2.5
		c0.1-0.3,0-0.7-0.3-0.9L0.6,5.4C0,4.9,0.3,3.8,1.2,3.7l2.5-0.2C4,3.5,4.3,3.3,4.5,3L5.4,0.6z"/>
	<path class="st0" d="M21,0.6c0.3-0.8,1.5-0.8,1.8,0l1,2.4c0.1,0.3,0.4,0.5,0.7,0.6L27,3.7c0.9,0.1,1.2,1.1,0.6,1.7l-1.9,1.7
		c-0.3,0.2-0.4,0.6-0.3,0.9l0.6,2.5c0.2,0.8-0.7,1.5-1.5,1l-2.1-1.3c-0.3-0.2-0.6-0.2-0.9,0l-2.1,1.3c-0.7,0.5-1.7-0.2-1.5-1
		l0.6-2.5c0.1-0.3,0-0.7-0.3-0.9l-1.9-1.7c-0.6-0.6-0.3-1.6,0.6-1.7l2.5-0.2c0.3,0,0.6-0.2,0.7-0.6L21,0.6z"/>
	<path class="st0" d="M36.6,0.6c0.3-0.8,1.5-0.8,1.8,0l1,2.4c0.1,0.3,0.4,0.5,0.7,0.6l2.5,0.2c0.9,0.1,1.2,1.1,0.6,1.7l-1.9,1.7
		C41,7.4,40.9,7.7,41,8.1l0.6,2.5c0.2,0.8-0.7,1.5-1.5,1L38,10.3c-0.3-0.2-0.6-0.2-0.9,0l-2.1,1.3c-0.7,0.5-1.7-0.2-1.5-1L34,8.1
		c0.1-0.3,0-0.7-0.3-0.9l-1.9-1.7c-0.6-0.6-0.3-1.6,0.6-1.7l2.5-0.2c0.3,0,0.6-0.2,0.7-0.6L36.6,0.6z"/>
	<path class="st0" d="M52.2,0.6c0.3-0.8,1.5-0.8,1.8,0L55,3c0.1,0.3,0.4,0.5,0.7,0.6l2.5,0.2c0.9,0.1,1.2,1.1,0.6,1.7l-1.9,1.7
		c-0.3,0.2-0.4,0.6-0.3,0.9l0.6,2.5c0.2,0.8-0.7,1.5-1.5,1l-2.1-1.3c-0.3-0.2-0.6-0.2-0.9,0l-2.1,1.3c-0.7,0.5-1.7-0.2-1.5-1
		l0.6-2.5c0.1-0.3,0-0.7-0.3-0.9l-1.9-1.7c-0.6-0.6-0.3-1.6,0.6-1.7l2.5-0.2c0.3,0,0.6-0.2,0.7-0.6L52.2,0.6z"/>
	<path class="st0" d="M67.8,0.6c0.3-0.8,1.5-0.8,1.8,0l1,2.4c0.1,0.3,0.4,0.5,0.7,0.6l2.5,0.2c0.9,0.1,1.2,1.1,0.6,1.7l-1.9,1.7
		c-0.3,0.2-0.4,0.6-0.3,0.9l0.6,2.5c0.2,0.8-0.7,1.5-1.5,1l-2.1-1.3c-0.3-0.2-0.6-0.2-0.9,0l-2.1,1.3c-0.7,0.5-1.7-0.2-1.5-1
		l0.6-2.5c0.1-0.3,0-0.7-0.3-0.9L63,5.4c-0.6-0.6-0.3-1.6,0.6-1.7l2.5-0.2c0.3,0,0.6-0.2,0.7-0.6L67.8,0.6z"/>
</g>
</svg>
