<svg width="112" height="112" viewBox="0 0 112 112" fill="none" xmlns="http://www.w3.org/2000/svg">
<path d="M42.7003 12.0522C17.4557 13.6763 10.0252 32.1025 12.8616 53.8199C15.1421 71.2814 29.8107 88.605 49.7703 94.5152C74.4794 101.832 97.2218 81.8607 101.768 61.0546C107.024 36.9963 71.7553 10.183 42.7003 12.0522Z" fill="#E6EFFF"/>
<path fill-rule="evenodd" clip-rule="evenodd" d="M47.8934 19.8844C47.4179 19.611 46.812 19.7516 46.5055 20.2065L8.89524 76.0288C8.36483 76.816 9.07375 77.8457 9.99844 77.6311L105.961 55.3602C106.885 55.1456 107.068 53.9089 106.245 53.4358L47.8934 19.8844ZM51.2415 34.608C50.9241 34.4248 50.519 34.5189 50.3147 34.8231L33.42 59.9825C33.0675 60.5074 33.5402 61.1927 34.1561 61.0498L77.2997 51.037C77.9156 50.8941 78.0381 50.0707 77.4904 49.7546L51.2415 34.608Z" fill="#FFCC60"/>
<line x1="17.6696" y1="71.2534" x2="18.682" y2="75.6157" stroke="#B75327" stroke-width="1.86667"/>
<line x1="21.7885" y1="71.6122" x2="22.5116" y2="74.7282" stroke="#B75327" stroke-width="1.86667"/>
<line x1="24.9786" y1="70.8705" x2="25.7018" y2="73.9865" stroke="#B75327" stroke-width="1.86667"/>
<line x1="33.2745" y1="68.9453" x2="33.9977" y2="72.0612" stroke="#B75327" stroke-width="1.86667"/>
<line x1="36.4646" y1="68.204" x2="37.1877" y2="71.32" stroke="#B75327" stroke-width="1.86667"/>
<line x1="44.7606" y1="66.2802" x2="45.4838" y2="69.3961" stroke="#B75327" stroke-width="1.86667"/>
<line x1="47.9507" y1="65.5385" x2="48.6739" y2="68.6544" stroke="#B75327" stroke-width="1.86667"/>
<line x1="56.2484" y1="63.6142" x2="56.9715" y2="66.7301" stroke="#B75327" stroke-width="1.86667"/>
<line x1="59.4403" y1="62.873" x2="60.1634" y2="65.9889" stroke="#B75327" stroke-width="1.86667"/>
<line x1="67.7361" y1="60.9472" x2="68.4593" y2="64.0631" stroke="#B75327" stroke-width="1.86667"/>
<line x1="70.9281" y1="60.2065" x2="71.6512" y2="63.3224" stroke="#B75327" stroke-width="1.86667"/>
<line x1="79.2222" y1="58.2812" x2="79.9454" y2="61.3971" stroke="#B75327" stroke-width="1.86667"/>
<line x1="82.4123" y1="57.541" x2="83.1355" y2="60.6569" stroke="#B75327" stroke-width="1.86667"/>
<line x1="90.7082" y1="55.6157" x2="91.4314" y2="58.7316" stroke="#B75327" stroke-width="1.86667"/>
<line x1="93.8984" y1="54.8754" x2="94.6215" y2="57.9914" stroke="#B75327" stroke-width="1.86667"/>
<line x1="29.1558" y1="68.5873" x2="30.1682" y2="72.9496" stroke="#B75327" stroke-width="1.86667"/>
<line x1="40.6438" y1="65.9213" x2="41.6562" y2="70.2836" stroke="#B75327" stroke-width="1.86667"/>
<line x1="52.13" y1="63.2553" x2="53.1424" y2="67.6176" stroke="#B75327" stroke-width="1.86667"/>
<line x1="63.6162" y1="60.5898" x2="64.6286" y2="64.9521" stroke="#B75327" stroke-width="1.86667"/>
<line x1="75.1042" y1="57.9238" x2="76.1166" y2="62.2861" stroke="#B75327" stroke-width="1.86667"/>
<line x1="86.5904" y1="55.2582" x2="87.6028" y2="59.6205" stroke="#B75327" stroke-width="1.86667"/>
<line x1="98.0767" y1="52.5927" x2="99.0891" y2="56.955" stroke="#B75327" stroke-width="1.86667"/>
<g style="mix-blend-mode:screen" opacity="0.5">
<path opacity="0.3" fill-rule="evenodd" clip-rule="evenodd" d="M33.8439 72.0973L29.1144 73.1949L37.7632 60.2129L42.4926 59.1153L33.8439 72.0973ZM62.8856 28.505L59.9948 26.8428L53.8272 36.1005L56.7152 37.7669L62.8856 28.505Z" fill="white"/>
<path opacity="0.3" fill-rule="evenodd" clip-rule="evenodd" d="M53.9543 67.4304L44.1722 69.7006L52.821 56.7186L62.6031 54.4484L53.9543 67.4304ZM75.1784 35.5726L69.1992 32.1346L63.0225 41.4059L68.9959 44.8527L75.1784 35.5726Z" fill="white"/>
<path opacity="0.3" fill-rule="evenodd" clip-rule="evenodd" d="M15.5418 76.3449L51.6989 22.0724L53.5613 23.1432L18.5886 75.6378L15.5418 76.3449Z" fill="white"/>
</g>
<rect x="49.1162" y="75.8921" width="61.6275" height="13.2059" transform="rotate(-51.5473 49.1162 75.8921)" fill="#85B3FF"/>
<rect x="86.8925" y="28.3193" width="6.16275" height="13.2059" transform="rotate(-51.5473 86.8925 28.3193)" fill="white"/>
<path d="M89.0836 25.561L93.3977 20.1283C94.0388 19.321 95.213 19.1862 96.0203 19.8273L103.438 25.718C104.246 26.3591 104.381 27.5333 103.739 28.3406L99.4254 33.7734L89.0836 25.561Z" fill="#FD9FB8"/>
<path fill-rule="evenodd" clip-rule="evenodd" d="M97.3574 32.1308L99.4261 33.7736L103.74 28.3408C104.381 27.5335 104.247 26.3593 103.439 25.7182L96.021 19.8275C96.0095 19.8184 95.998 19.8095 95.9864 19.8007L101.37 24.0758C102.178 24.717 102.312 25.8912 101.671 26.6985L97.3574 32.1308Z" fill="#FC789B"/>
<g style="mix-blend-mode:multiply">
<rect x="57.3904" y="82.4614" width="64.2686" height="2.64118" transform="rotate(-51.5473 57.3904 82.4614)" fill="#85B3FF"/>
</g>
<path d="M59.4592 84.1044L49.1173 75.8921L46.8262 88.6874L59.4592 84.1044Z" fill="#FFEBBF"/>
<path fill-rule="evenodd" clip-rule="evenodd" d="M47.3388 85.8243L46.8262 88.687L50.1466 87.4825C50.0462 86.9943 49.7804 86.5373 49.3596 86.2031C48.7681 85.7334 48.0097 85.6169 47.3388 85.8243Z" fill="#001C47"/>
<line x1="51.5348" y1="77.7921" x2="89.3115" y2="30.2198" stroke="#1E6DEB" stroke-width="1.86667"/>
<line x1="54.2929" y1="79.9821" x2="92.0695" y2="32.4097" stroke="#1E6DEB" stroke-width="1.86667"/>
<line x1="57.051" y1="82.172" x2="94.8277" y2="34.5997" stroke="#1E6DEB" stroke-width="1.86667"/>
</svg>
