<svg width="112" height="113" viewBox="0 0 112 113" fill="none" xmlns="http://www.w3.org/2000/svg">
<path d="M100.652 41.6221C106.548 63.4711 97.3867 87.6163 69.503 95.1415C41.6192 102.667 15.0315 83.0539 10.5802 66.5599C6.12894 50.066 16.6993 22.849 44.583 15.3239C72.4667 7.79877 94.7552 19.7732 100.652 41.6221Z" fill="#E6EFFF"/>
<path d="M66.7932 53.8496L51.6436 59.8282C47.9158 61.2993 45.0838 64.4198 43.98 68.2724L35.1123 99.2249H93.1599L86.2956 56.7045L66.7932 53.8496Z" fill="#FED8E2"/>
<path d="M81.8093 77.4845L41.6795 94.1961C36.7109 96.2652 38.7018 103.719 44.0404 103.035L88.0007 97.4016C89.7239 97.1808 90.8206 95.4462 90.2811 93.7948L85.5062 79.1809C85.0045 77.6454 83.3005 76.8635 81.8093 77.4845Z" fill="#FDB2C6"/>
<path d="M72.5037 88.3221L69.3455 92.0377C68.5811 92.937 69.2202 94.319 70.4004 94.319H75.9908L74.9165 88.9473C74.6895 87.8125 73.2532 87.4403 72.5037 88.3221Z" fill="#003D9F"/>
<path d="M70.2681 95.5454H53.86C52.5844 95.5454 51.3579 96.0368 50.4352 96.9176L47.0458 100.153C45.5398 101.59 46.5573 104.13 48.6392 104.13H68.5106L70.2681 95.5454Z" fill="#DE9952"/>
<path d="M48.0115 72.9275C47.7898 72.0455 46.9968 71.4272 46.0874 71.4272H5.805C4.50284 71.4272 3.55371 72.6604 3.88702 73.9192L11.6313 103.165C11.8457 103.975 12.5783 104.539 13.4159 104.539H55.9606L48.0115 72.9275Z" fill="#B6D2FF"/>
<ellipse rx="2.75618" ry="4.23567" transform="matrix(-0.906308 0.422618 0.422618 0.906308 27.8148 90.0715)" fill="#1E6DEB"/>
<path d="M61.6574 43.9827C61.381 39.6111 64.685 35.6661 69.0372 35.1712C73.3894 34.6762 77.1417 37.8188 77.4182 42.1903L78.1211 53.3049C78.3975 57.6764 75.0935 61.6215 70.7413 62.1164C66.3891 62.6114 62.6368 59.4688 62.3603 55.0972L61.6574 43.9827Z" fill="#DE9952"/>
<path d="M71.03 54.6781C73.0405 53.1243 74.9927 48.1533 75.3454 45.8411C69.5256 46.6735 60.5164 49.7534 62.9501 55.4137C65.3838 61.0741 68.1508 60.7297 70.0026 59.8511C69.9144 58.7874 69.0196 56.232 71.03 54.6781Z" fill="#D37522"/>
<path d="M53.5871 29.2696C54.9002 22.8141 56.934 16.7837 66.498 16.7837C74.4093 16.7837 77.0234 21.8785 77.7607 26.3982C78.4979 30.9178 77.7607 39.721 77.7607 39.721C77.7607 43.4606 76.0885 47.0061 73.2341 49.4221C71.4813 50.9056 70.3969 51.8088 69.657 52.2198C68.4209 52.9066 64.9872 53.7307 63.0643 53.7307C61.1414 53.7307 58.257 53.456 57.7076 51.5331C57.1582 49.6102 54.2739 42.056 53.5872 39.721C53.0378 37.8531 53.8161 35.5548 54.2739 34.2271C52.9004 31.7548 53.1122 31.6045 53.5871 29.2696Z" fill="#DE9952"/>
<path d="M58.2227 40.9132C59.9504 40.6108 63.2147 40.3461 62.4509 41.7072C61.4962 43.4085 57.6771 42.3877 58.2227 40.9132Z" fill="#D37522"/>
<path d="M61.4159 34.2268C60.8207 35.463 59.4381 38.155 58.6689 39.034C57.7075 40.1328 58.6689 42.0557 59.7677 41.9184M61.6906 41.4148C62.1027 41.369 63.0092 41.4148 63.3388 41.9642" stroke="#955318" stroke-width="1.38462" stroke-linecap="round"/>
<path d="M62.0155 53.6308C63.3645 53.6308 66.4281 53.466 67.8902 52.8067C69.7179 51.9826 73.4155 50.197 75.3384 45.9392" stroke="#955318" stroke-width="1.38462" stroke-linecap="round"/>
<path d="M56.5216 24.0852L53.6552 29.3112C52.4304 25.6962 52.9235 24.7038 52.9505 21.8875C52.9722 19.6345 55.6972 18.7071 57.057 18.525C63.389 11.861 75.3385 14.608 77.3987 20.2393C81.7939 22.5743 79.6722 29.7902 79.5963 33.0129C77.4915 33.4049 76.4321 32.9866 76.4041 34.2373L74.1023 34.1321L74.1023 30.2658L69.5698 24.6346C62.8292 27.1142 57.7203 25.3624 56.5216 24.0852Z" fill="#003D9F"/>
<path d="M56.456 23.8874L53.5159 29.5799L53.1804 28.5522C52.4914 26.4417 52.4116 24.1796 52.95 22.0257L56.456 23.8874Z" fill="#002661"/>
<path d="M75.7507 35.9821V41.5294C80.4314 41.5294 80.9699 37.9023 80.9699 36.6648C80.9699 35.4273 80.5557 32.739 78.1946 32.739C76.3057 32.739 75.7783 34.901 75.7507 35.9821Z" fill="#DE9952"/>
<path d="M76.4567 39.3968C76.8707 39.0834 77.8671 38.3832 77.2047 37.2298C76.5423 36.0764 77.0338 35.408 77.7927 35.3104C78.2545 35.251 78.7948 35.4179 79.0175 36.2782" stroke="#955318" stroke-width="1.38462" stroke-linecap="round"/>
<path d="M75.7503 42.0787L77.6732 41.5293" stroke="#98511B" stroke-width="1.38462" stroke-linecap="round"/>
<path d="M52.9504 22.0254C54.1866 23.3073 57.7302 25.8712 62.0155 25.8712C66.3008 25.8712 69.8444 24.5892 71.0806 23.9483" stroke="#001535" stroke-width="1.38462"/>
<line x1="72.8712" y1="27.4364" x2="78.0905" y2="27.4364" stroke="#001535" stroke-width="1.38462"/>
<line x1="74.1024" y1="30.3978" x2="77.1241" y2="30.3978" stroke="#001535" stroke-width="1.38462"/>
<path d="M56.2474 18.8662C56.8425 19.5072 58.6647 21.1187 60.6425 20.2397C63.1148 19.1409 68.4715 17.0806 72.5919 22.4373" stroke="#001535" stroke-width="1.38462"/>
<path d="M67.3723 20.3774C68.6084 20.6521 69.7072 21.3389 70.9433 22.575" stroke="#1E6DEB" stroke-width="1.38462"/>
<path d="M76.9871 21.6138C77.6738 22.1632 79.0473 23.7015 79.0473 25.4596" stroke="#1E6DEB" stroke-width="1.38462"/>
<path d="M64.7229 30.106C65.7713 29.5273 68.8789 29.0903 70.6767 31.9801" stroke="#00307A" stroke-width="1.38462" stroke-linecap="round"/>
<path d="M58.618 30.1409C54.8371 29.5336 53.7125 31.1629 53.7125 31.1629" stroke="#00307A" stroke-width="1.38462" stroke-linecap="round"/>
<path d="M59.1926 46.0814C60.3254 46.6638 63.8222 47.7626 67.4498 43.9216" stroke="#955318" stroke-width="1.38462" stroke-linecap="round"/>
<path d="M61.1612 48.2471C61.652 48.4415 62.9915 48.6334 64.423 47.8462" stroke="#955318" stroke-width="1.38462" stroke-linecap="round"/>
<path d="M63.5727 33.3664C63.5727 33.3664 66.3151 32.2391 68.6047 34.2721" stroke="#002661" stroke-width="1.38462" stroke-miterlimit="10" stroke-linecap="round"/>
<path d="M65.1683 35.339C65.7383 35.7155 66.5054 35.5586 66.8819 34.9887C67.2583 34.4187 67.1015 33.6516 66.5315 33.2751C65.9616 32.8987 65.1944 33.0555 64.818 33.6255C64.4415 34.1954 64.5984 34.9626 65.1683 35.339Z" fill="#002661"/>
<path d="M58.829 33.8066C58.829 33.8066 56.6176 32.5331 54.9789 33.9326" stroke="#002661" stroke-width="1.38462" stroke-miterlimit="10" stroke-linecap="round"/>
<path d="M56.4159 35.647C56.9562 35.9142 57.6108 35.6926 57.8779 35.1523C58.145 34.6119 57.9235 33.9573 57.3832 33.6902C56.8428 33.4231 56.1882 33.6446 55.9211 34.185C55.654 34.7253 55.8755 35.3799 56.4159 35.647Z" fill="#002661"/>
<path d="M80.8149 54.4173L79.272 50.8567C78.8784 49.9485 77.6867 49.7346 77.0018 50.4492L69.705 58.0632C69.3058 58.4798 69.2068 59.1002 69.4564 59.6204L72.2559 65.453C72.7308 66.4426 74.1134 66.5124 74.6857 65.5758L80.726 55.6898C80.9609 55.3053 80.994 54.8307 80.8149 54.4173Z" fill="#FED8E2"/>
<path d="M61.1216 55.4249L61.2545 55.1812C61.6822 54.3972 62.7293 54.2171 63.3943 54.8133L67.2817 58.2986C67.7229 58.6941 67.8635 59.3265 67.6315 59.8717L65.5684 64.7199C65.0463 65.9467 63.2621 65.7993 62.9486 64.5033L60.9913 56.4135C60.9105 56.0792 60.9569 55.7268 61.1216 55.4249Z" fill="#FED8E2"/>
<path d="M61.4611 56.8397C61.3233 56.3489 60.8137 56.0628 60.3229 56.2006C59.8321 56.3384 59.5459 56.8481 59.6837 57.3389L61.4611 56.8397ZM68.753 60.7432L69.5171 60.2253C69.3556 59.987 69.0922 59.8378 68.8048 59.8216C68.5174 59.8055 68.2389 59.9243 68.0518 60.1429L68.753 60.7432ZM81.08 56.4031C81.3737 55.9864 81.2739 55.4105 80.8572 55.1168C80.4405 54.8231 79.8646 54.9229 79.5709 55.3396L81.08 56.4031ZM71.9942 65.5247L71.2301 66.0426L71.9942 65.5247ZM64.4888 65.7243L63.7876 65.124L64.4888 65.7243ZM63.7876 65.124L61.4611 56.8397L59.6837 57.3389L62.0102 65.6231L63.7876 65.124ZM65.19 66.3246L69.4542 61.3435L68.0518 60.1429L63.7876 65.124L65.19 66.3246ZM67.9889 61.2612L71.2301 66.0426L72.7582 65.0067L69.5171 60.2253L67.9889 61.2612ZM74.2673 66.0702L81.08 56.4031L79.5709 55.3396L72.7582 65.0067L74.2673 66.0702ZM71.2301 66.0426C71.9544 67.1112 73.5237 67.1254 74.2673 66.0702L72.7582 65.0067L72.7582 65.0067L71.2301 66.0426ZM62.0102 65.6231C62.4091 67.0435 64.2306 67.4453 65.19 66.3246L63.7876 65.124L62.0102 65.6231Z" fill="#FA3E70"/>
<path d="M88.4406 57.5403L85.3934 56.5073L89.9624 95.6699C90.571 100.886 95.6649 104.349 100.739 102.996C103.931 102.145 105.887 98.9315 105.177 95.7055L99.4972 69.8886C98.2282 64.1204 94.0342 59.4364 88.4406 57.5403Z" fill="#FED8E2"/>
<path d="M47.69 72.189L56.2783 103.966" stroke="#1E6DEB" stroke-width="1.84615" stroke-linecap="round"/>
<path d="M67.2026 62.4343H70.4729L77.4222 103.517L66.7938 103.926L67.2026 62.4343Z" fill="#1E6DEB"/>
<rect x="66.5893" y="58.551" width="4.49665" height="5.31422" rx="1.84615" fill="#1E6DEB"/>
<path d="M67.443 63.6011H70.8783" stroke="#003D9F" stroke-width="1.38462" stroke-linecap="round"/>
<path d="M65.8439 94.6821L66.6212 103.536C66.6849 104.261 67.3 104.813 68.0284 104.799L97.2342 104.21C101.78 104.119 105.073 99.8428 104 95.4245C103.158 91.9576 99.8768 89.6516 96.3297 90.0336L67.075 93.1844C66.3253 93.2652 65.778 93.931 65.8439 94.6821Z" fill="#FED8E2"/>
<path d="M77.7488 92.8013L79.4664 103.107" stroke="#FA3E70" stroke-width="1.84615" stroke-linecap="round"/>
<path d="M95.7843 90.2244L88.0549 91.0832" stroke="#FA3E70" stroke-width="1.84615" stroke-linecap="round" stroke-linejoin="round"/>
</svg>
